<svg xmlns="http://www.w3.org/2000/svg" xmlns:xlink="http://www.w3.org/1999/xlink" viewBox="0 0 112.1172 113.295"><defs><style>.cls-1{fill:none;}.cls-2{fill:#60c6dd;}.cls-3{clip-path:url(#clip-path);}.cls-4{fill:#78911d;}.cls-5{fill:#fff;}.cls-6{fill:#fed2bc;}.cls-7{fill:#ff8f78;}.cls-8{fill:#d63d1a;}.cls-9{fill:#1e1e1d;}.cls-10{fill:#aa3727;}</style><clipPath id="clip-path"><circle class="cls-1" cx="56.0586" cy="56.0586" r="56.0586"/></clipPath></defs><g id="Layer_2" data-name="Layer 2"><g id="OBJECTS"><circle class="cls-2" cx="56.0586" cy="56.0586" r="56.0586"/><g class="cls-3"><path class="cls-4" d="M75.0723,81.1036H37.209a6.83028,6.83028,0,0,0-6.8301,6.83V113.295H81.90241V87.9336A6.83029,6.83029,0,0,0,75.0723,81.1036Z"/><rect class="cls-5" x="49.8926" y="81.543" width="12.502" height="31.752"/><path class="cls-6" d="M56.1426,87.3545a6.25143,6.25143,0,0,0,6.252-6.2509H49.8926A6.25094,6.25094,0,0,0,56.1426,87.3545Z"/><rect class="cls-6" x="49.8926" y="68.4825" width="12.502" height="13.0605"/><path class="cls-7" d="M56.1426,75.917s-4.32419.3321-6.2588.5049c1.0928,1.7139,3.9444,2.8272,6.2588,2.8272,2.3516,0,5.167-1.1133,6.25981-2.8272C60.4678,76.2491,56.1426,75.917,56.1426,75.917Z"/><path class="cls-8" d="M72.7012,86.168a2.67237,2.67237,0,0,0-.0781-5.3437,2.6763,2.6763,0,0,0,0-5.3526,2.67575,2.67575,0,1,0,0-5.3515,2.6763,2.6763,0,0,0,0-5.3526H67.6758a2.6763,2.6763,0,0,0,0,5.3526,2.67575,2.67575,0,1,0,0,5.3515,2.6763,2.6763,0,0,0,0,5.3526,2.67575,2.67575,0,1,0,0,5.3515h.3125c-1.7285.8125-2.6875,2.5645-2.6875,4.8789,0,3.2461,3.9121,6.1055,5.0508,6.3828,1.1387-.2773,5.05081-3.1367,5.05081-6.3828C75.40241,88.7334,74.4375,86.9776,72.7012,86.168Z"/><path class="cls-6" d="M80.4258,52.9698a5.1123,5.1123,0,1,1-5.1113-5.1123A5.11234,5.11234,0,0,1,80.4258,52.9698Z"/><path class="cls-7" d="M78.3418,52.9698a3.0283,3.0283,0,1,1-3.0273-3.0284A3.02825,3.02825,0,0,1,78.3418,52.9698Z"/><path class="cls-6" d="M42.084,52.9698a5.1123,5.1123,0,1,1-5.1113-5.1123A5.11234,5.11234,0,0,1,42.084,52.9698Z"/><path class="cls-7" d="M40.001,52.9698a3.0283,3.0283,0,1,1-3.0273-3.0284A3.02832,3.02832,0,0,1,40.001,52.9698Z"/><path class="cls-6" d="M75.2578,37.9678a19.14649,19.14649,0,0,0-38.23039,0H36.9727V58.1827h.0019c0,.0254-.0019.0498-.0019.0752a19.1709,19.1709,0,1,0,38.3418,0c0-.0254-.002-.0498-.002-.0752h.002V37.9678Z"/><circle class="cls-9" cx="46.9571" cy="50.1739" r="2.3164"/><circle class="cls-9" cx="64.8106" cy="50.1739" r="2.3164"/><path class="cls-8" d="M65.3536,17.2696H60.0703v-.02H46.7618c-9.4395,0-13.4063,6.0009-13.4063,12.5737V48.2276h3.4473c1.0664,0,1.6465-.8535,1.6465-1.9717V42.1026h.0195c0-5.5557,2.1758-9.3999,5.1504-11.1699v9.3261H68.6621V31.0489c2.8907,1.8125,4.9864,5.6201,4.9864,11.0732h.0195v4.1543c0,1.1172.5801,1.9717,1.6465,1.9717h3.4453V29.8433C78.7598,23.2706,74.793,17.2696,65.3536,17.2696Z"/><path class="cls-9" d="M64.8103,58.6602a8.48655,8.48655,0,1,1,8.4863-8.4873A8.49746,8.49746,0,0,1,64.8103,58.6602Zm0-14.9936a6.5066,6.5066,0,1,0,6.5059,6.5063A6.51423,6.51423,0,0,0,64.8103,43.6666Z"/><path class="cls-9" d="M46.9568,58.6602a8.48655,8.48655,0,1,1,8.4863-8.4873A8.4974,8.4974,0,0,1,46.9568,58.6602Zm0-14.9936a6.5066,6.5066,0,1,0,6.5059,6.5063A6.51423,6.51423,0,0,0,46.9568,43.6666Z"/><path class="cls-9" d="M57.3123,50.6207H54.43341a.98975.98975,0,1,1,0-1.9795H57.3123a.98975.98975,0,1,1,0,1.9795Z"/><path class="cls-9" d="M49.2732,46.9136a.63975.63975,0,0,1-.4863-.2241,2.33168,2.33168,0,0,0-1.6309-.5825,2.93407,2.93407,0,0,0-2.05959.6152.63911.63911,0,0,1-.91211-.8955,4.04679,4.04679,0,0,1,3.0166-.9966,3.49482,3.49482,0,0,1,2.5586,1.0293.63945.63945,0,0,1-.4863,1.0542Z"/><path class="cls-9" d="M62.4939,46.9136a.63945.63945,0,0,1-.4863-1.0542,3.49482,3.49482,0,0,1,2.5586-1.0293,4.05868,4.05868,0,0,1,3.0166.9966.63911.63911,0,0,1-.9121.8955,2.94946,2.94946,0,0,0-2.0596-.6152,2.33171,2.33171,0,0,0-1.6309.5825A.63975.63975,0,0,1,62.4939,46.9136Z"/><path class="cls-7" d="M44.2129,60.2745a.9785.9785,0,1,1-.97849-.9786A.97646.97646,0,0,1,44.2129,60.2745Z"/><path class="cls-7" d="M49.23441,60.2745a.9785.9785,0,1,1-.97851-.9786A.979.979,0,0,1,49.23441,60.2745Z"/><path class="cls-7" d="M46.77741,62.6514a.97856.97856,0,1,1-.97851-.9785A.97968.97968,0,0,1,46.77741,62.6514Z"/><path class="cls-7" d="M65.1817,60.2745a.97855.97855,0,1,1-.9785-.9786A.97654.97654,0,0,1,65.1817,60.2745Z"/><path class="cls-7" d="M70.2012,60.2745a.9785.9785,0,1,1-.9785-.9786A.97775.97775,0,0,1,70.2012,60.2745Z"/><circle class="cls-7" cx="66.7676" cy="62.6514" r="0.9785"/><path class="cls-10" d="M56.1426,70.6504a6.25079,6.25079,0,0,0,6.252-6.2509H49.8926A6.2503,6.2503,0,0,0,56.1426,70.6504Z"/><path class="cls-7" d="M56.1338,59.8858a3.53,3.53,0,0,1-3.0625-1.791,3.06424,3.06424,0,0,0,6.124,0A3.527,3.527,0,0,1,56.1338,59.8858Z"/></g></g></g></svg>