<svg xmlns="http://www.w3.org/2000/svg" xmlns:xlink="http://www.w3.org/1999/xlink" viewBox="0 0 112.1167 113.3995"><defs><style>.cls-1{fill:none;}.cls-2{fill:#35ad60;}.cls-3{clip-path:url(#clip-path);}.cls-4{fill:#1e1e1d;}.cls-5{fill:#aa3727;}.cls-6{fill:#fed2bc;}.cls-7{fill:#ff8f78;}.cls-8{fill:#701c16;}</style><clipPath id="clip-path"><circle class="cls-1" cx="56.05822" cy="56.0586" r="56.05841"/></clipPath></defs><g id="Layer_2" data-name="Layer 2"><g id="OBJECTS"><circle class="cls-2" cx="56.05822" cy="56.0586" r="56.05841"/><g class="cls-3"><path class="cls-4" d="M66.53661,15.1172A10.47776,10.47776,0,1,1,56.0581,4.6392,10.47748,10.47748,0,0,1,66.53661,15.1172Z"/><rect class="cls-5" x="49.6651" y="68.587" width="12.5024" height="12.6211"/><path class="cls-5" d="M74.8452,81.2081H36.9834a6.83043,6.83043,0,0,0-6.8296,6.83v25.3614H81.6753V88.0381A6.83086,6.83086,0,0,0,74.8452,81.2081Z"/><path class="cls-5" d="M55.916,87.459a6.25125,6.25125,0,0,0,6.2515-6.2509H49.6651A6.25113,6.25113,0,0,0,55.916,87.459Z"/><path class="cls-6" d="M80.1148,53.0733a5.1123,5.1123,0,1,1-5.1114-5.1113A5.11242,5.11242,0,0,1,80.1148,53.0733Z"/><path class="cls-7" d="M77.9273,53.0733a2.9248,2.9248,0,1,1-2.9239-2.9238A2.92476,2.92476,0,0,1,77.9273,53.0733Z"/><path class="cls-6" d="M41.7739,53.0733a5.1123,5.1123,0,1,1-5.11229-5.1113A5.11255,5.11255,0,0,1,41.7739,53.0733Z"/><path class="cls-7" d="M39.501,53.0733a2.9248,2.9248,0,1,1-2.9238-2.9238A2.92474,2.92474,0,0,1,39.501,53.0733Z"/><path class="cls-6" d="M75.0308,38.0733a19.146,19.146,0,0,0-38.2295,0h-.0562V58.2881h.00251c0,.0244-.00251.0498-.00251.0742a19.17115,19.17115,0,1,0,38.3423,0c0-.0244-.0019-.0498-.0019-.0742h.0019V38.0733Z"/><path class="cls-4" d="M49.0459,50.2774A2.31615,2.31615,0,1,1,46.73,47.962,2.31567,2.31567,0,0,1,49.0459,50.2774Z"/><path class="cls-4" d="M66.8999,50.2774a2.3164,2.3164,0,1,1-2.3164-2.3154A2.31578,2.31578,0,0,1,66.8999,50.2774Z"/><path class="cls-5" d="M55.916,70.7539a6.25042,6.25042,0,0,0,6.2515-6.25H49.667A6.24989,6.24989,0,0,0,55.916,70.7539Z"/><path class="cls-4" d="M65.1265,17.3741H59.8433V17.354H46.5362c-9.4395,0-13.4063,6.001-13.4063,12.5733V48.3321h3.4463c1.0649,0,1.646-.8535,1.646-1.9717V42.2061h.02c0-7.8281,4.3135-12.2788,9.1065-12.2788H58.7241v.02h5.5918c4.793,0,9.1075,4.4507,9.1075,12.2793h.0195v4.1533c0,1.1192.5781,1.9727,1.6445,1.9727h3.4473V29.9473C78.5347,23.375,74.5679,17.3741,65.1265,17.3741Z"/><path class="cls-4" d="M49.04661,47.0181a.6388.6388,0,0,1-.48681-.2241,2.32511,2.32511,0,0,0-1.6299-.5825,2.94314,2.94314,0,0,0-2.06.6152.63911.63911,0,0,1-.9121-.8955,4.093,4.093,0,0,1,3.0166-.9971,3.496,3.496,0,0,1,2.5581,1.0298.63912.63912,0,0,1-.48589,1.0542Z"/><path class="cls-4" d="M62.2668,47.0181a.63912.63912,0,0,1-.4863-1.0542,3.49476,3.49476,0,0,1,2.5576-1.0298,4.12312,4.12312,0,0,1,3.0176.9971.63911.63911,0,0,1-.91209.8955,2.94225,2.94225,0,0,0-2.06151-.6152,2.32331,2.32331,0,0,0-1.6289.5825A.63858.63858,0,0,1,62.2668,47.0181Z"/><path class="cls-4" d="M61.33161,28.6695c0,4.7715-7.54741,19.6626-24.75541,19.6626V28.6695Z"/><rect class="cls-6" x="30.1538" y="104.7979" width="12.0586" height="8.6016"/><rect class="cls-6" x="69.6187" y="104.7979" width="12.0566" height="8.6016"/><path class="cls-8" d="M62.1675,91.2735H49.6651a1.27835,1.27835,0,0,1,0-2.5567H62.1675a1.27835,1.27835,0,0,1,0,2.5567Z"/><path class="cls-8" d="M62.1675,99.6875H49.6651a1.2778,1.2778,0,0,1,0-2.5556H62.1675a1.2778,1.2778,0,0,1,0,2.5556Z"/><path class="cls-8" d="M62.1675,107.5684H49.6651a1.27785,1.27785,0,0,1,0-2.5557H62.1675a1.27785,1.27785,0,0,1,0,2.5557Z"/><path class="cls-7" d="M55.8228,60.1006a3.5311,3.5311,0,0,1-3.0625-1.791,3.06423,3.06423,0,0,0,6.124,0A3.529,3.529,0,0,1,55.8228,60.1006Z"/></g></g></g></svg>