<svg xmlns="http://www.w3.org/2000/svg" xmlns:xlink="http://www.w3.org/1999/xlink" viewBox="0 0 112.1172 112.1651"><defs><style>.cls-1{fill:none;}.cls-2{fill:#ef5a51;}.cls-3{clip-path:url(#clip-path);}.cls-4{fill:#fed2bc;}.cls-5{fill:#7752db;}.cls-6{fill:#ff8f78;}.cls-7{fill:#1e1e1d;}.cls-8{fill:#af522e;}.cls-9{fill:#aa2618;}.cls-10{fill:#fff;}</style><clipPath id="clip-path"><path class="cls-1" d="M112.1172,56.0586A56.0586,56.0586,0,1,1,56.0581,0,56.05878,56.05878,0,0,1,112.1172,56.0586Z"/></clipPath></defs><g id="Layer_2" data-name="Layer 2"><g id="OBJECTS"><path class="cls-2" d="M112.1172,56.0586A56.0586,56.0586,0,1,1,56.0581,0,56.05878,56.05878,0,0,1,112.1172,56.0586Z"/><g class="cls-3"><rect class="cls-4" x="49.857" y="67.3526" width="12.5009" height="12.6211"/><path class="cls-5" d="M75.0376,79.9737H37.1748a6.8306,6.8306,0,0,0-6.83,6.8301v25.3613H81.8672V86.8038A6.8302,6.8302,0,0,0,75.0376,79.9737Z"/><path class="cls-4" d="M56.1074,86.2247a6.25081,6.25081,0,0,0,6.2505-6.251H49.857A6.25078,6.25078,0,0,0,56.1074,86.2247Z"/><circle class="cls-4" cx="75.2783" cy="51.8399" r="5.1123"/><path class="cls-6" d="M78.1822,51.8399a2.90385,2.90385,0,1,1-2.9039-2.9038A2.90368,2.90368,0,0,1,78.1822,51.8399Z"/><circle class="cls-4" cx="36.9361" cy="51.8399" r="5.1123"/><path class="cls-6" d="M39.8399,51.8399a2.9038,2.9038,0,1,1-2.9038-2.9038A2.90366,2.90366,0,0,1,39.8399,51.8399Z"/><path class="cls-4" d="M75.2222,36.8389a19.14626,19.14626,0,0,0-38.23,0h-.0561V57.0538h.0029c0,.0244-.0029.0498-.0029.0742a19.1711,19.1711,0,1,0,38.3422,0c0-.0244-.0024-.0498-.0024-.0742h.0024V36.8389Z"/><path class="cls-7" d="M49.2378,49.044a2.31665,2.31665,0,1,1-2.3164-2.3164A2.31642,2.31642,0,0,1,49.2378,49.044Z"/><circle class="cls-7" cx="64.7744" cy="49.044" r="2.3164"/><path class="cls-8" d="M65.3194,16.1402H60.0352v-.02H46.7271c-9.4395,0-13.4058,6.0009-13.4058,12.5732V47.0987h3.4458c1.0654,0,1.6465-.8535,1.6465-1.9727V40.9727h.02c0-7.8281,4.3135-12.2793,9.106-12.2793H58.9151v.02h5.5918c4.7924,0,9.1059,4.4512,9.1059,12.2798h.02v4.1533c0,1.1182.5811,1.9717,1.6465,1.9717h3.4458V28.7134C78.7251,22.1412,74.7588,16.1402,65.3194,16.1402Z"/><path class="cls-7" d="M49.2385,45.7847a.63777.63777,0,0,1-.4863-.2241,2.33081,2.33081,0,0,0-1.6328-.5825,2.92218,2.92218,0,0,0-2.0586.6152.63911.63911,0,0,1-.9121-.8955,4.10025,4.10025,0,0,1,3.0146-.9971,3.499,3.499,0,0,1,2.5606,1.0298.63917.63917,0,0,1-.4854,1.0542Z"/><path class="cls-7" d="M62.4573,45.7847a.63917.63917,0,0,1-.4854-1.0542,3.49743,3.49743,0,0,1,2.5611-1.0298,4.08813,4.08813,0,0,1,3.0136.9976.63876.63876,0,0,1-.9121.8945,2.88638,2.88638,0,0,0-2.0576-.6147,2.33219,2.33219,0,0,0-1.6333.5825A.63777.63777,0,0,1,62.4573,45.7847Z"/><rect class="cls-4" x="30.3448" y="103.5645" width="12.059" height="8.6006"/><rect class="cls-4" x="69.8086" y="103.5645" width="12.0586" height="8.6006"/><path class="cls-8" d="M76.5752,56.9522c-1.5708,0-1.8301.2363-2.3696,1.2148a23.70169,23.70169,0,0,1-7.189,7.668c-1.4111.7725-2.5161.0537-2.5161-.7988,0-3.3545-1.6377-3.9942-2.7558-3.9942H50.4717c-1.1186,0-2.7559.6397-2.7559,3.9942,0,.8525-1.1054,1.5713-2.5166.7988a23.70681,23.70681,0,0,1-7.1889-7.668c-.5391-.9785-.7988-1.2148-2.3697-1.2148h-.6391s.5156,21.3701,21.1064,21.3701c20.5909,0,21.1065-21.3701,21.1065-21.3701Z"/><path class="cls-9" d="M56.1079,70.5186a6.25038,6.25038,0,0,1-6.25-6.251H62.3584A6.25106,6.25106,0,0,1,56.1079,70.5186Z"/><polygon class="cls-10" points="49.857 79.095 43.442 79.095 48.634 90.118 53.998 85.853 49.857 79.095"/><polygon class="cls-10" points="62.532 79.095 68.947 79.095 63.754 90.118 58.391 85.853 62.532 79.095"/><path class="cls-6" d="M56.0493,57.7666a3.53134,3.53134,0,0,1-3.0625-1.791,3.06428,3.06428,0,0,0,6.1241,0A3.52976,3.52976,0,0,1,56.0493,57.7666Z"/></g></g></g></svg>