<svg xmlns="http://www.w3.org/2000/svg" xmlns:xlink="http://www.w3.org/1999/xlink" viewBox="0 0 112.1172 112.6875"><defs><style>.cls-1{fill:none;}.cls-2{fill:#1e3658;}.cls-3{clip-path:url(#clip-path);}.cls-4{fill:#ef9d25;}.cls-5{fill:#fed2bc;}.cls-6{fill:#ff8f78;}.cls-7{fill:#f9db2b;}.cls-8{fill:#1e1e1d;}.cls-9{fill:#964229;}.cls-10{fill:#aa2618;}</style><clipPath id="clip-path"><path class="cls-1" d="M112.1172,56.0577A56.0586,56.0586,0,1,1,56.0581,0,56.05821,56.05821,0,0,1,112.1172,56.0577Z"/></clipPath></defs><g id="Layer_2" data-name="Layer 2"><g id="OBJECTS"><path class="cls-2" d="M112.1172,56.0577A56.0586,56.0586,0,1,1,56.0581,0,56.05821,56.05821,0,0,1,112.1172,56.0577Z"/><g class="cls-3"><path class="cls-4" d="M56.0606,71.8692c-1.8824,0-16.2608-.5596-16.2608,8.6269H72.3213C72.3213,71.3096,57.9429,71.8692,56.0606,71.8692Z"/><rect class="cls-5" x="49.8096" y="67.875" width="12.501" height="12.6211"/><path class="cls-6" d="M56.0606,75.2891s-4.3247.332-6.2588.5049c1.0923,1.7139,3.9438,2.8271,6.2588,2.8271,2.3515,0,5.167-1.1132,6.2592-2.8271C60.3858,75.6211,56.0606,75.2891,56.0606,75.2891Z"/><path class="cls-7" d="M74.9903,80.4961H37.127a6.82994,6.82994,0,0,0-6.8296,6.8301v25.3613H81.8198V87.3262A6.8296,6.8296,0,0,0,74.9903,80.4961Z"/><circle class="cls-5" cx="75.231" cy="52.3623" r="5.1123"/><circle class="cls-6" cx="75.231" cy="52.3623" r="3.0498"/><circle class="cls-5" cx="36.8887" cy="52.3623" r="5.1123"/><circle class="cls-6" cx="36.8887" cy="52.3623" r="3.0498"/><path class="cls-5" d="M75.1748,37.3614a19.14625,19.14625,0,0,0-38.23,0h-.0561V57.5752h.0024c0,.0254-.0024.0508-.0024.0752a19.17115,19.17115,0,0,0,38.3423,0c0-.0244-.0025-.0498-.0025-.0752h.0025V37.3614Z"/><path class="cls-8" d="M49.1905,49.5664A2.31665,2.31665,0,1,1,46.8736,47.25,2.31667,2.31667,0,0,1,49.1905,49.5664Z"/><path class="cls-8" d="M67.0435,49.5664A2.31665,2.31665,0,1,1,64.7271,47.25,2.3165,2.3165,0,0,1,67.0435,49.5664Z"/><path class="cls-9" d="M65.2715,16.6621H59.9878v-.0195H46.6797c-9.4394,0-13.4062,6.001-13.4062,12.5733V47.6202h3.4463c1.0654,0,1.6459-.8536,1.6459-1.9717V41.4952h.0201c0-7.8282,4.3134-12.2793,9.1064-12.2793H58.8677v.0195H64.459c4.793,0,9.1065,4.4512,9.1065,12.2793h.02V45.669c0,1.1181.581,1.9717,1.646,1.9717h3.4463V29.2354C78.6778,22.6631,74.7115,16.6621,65.2715,16.6621Z"/><path class="cls-8" d="M49.1912,46.3057a.636.636,0,0,1-.4864-.2236,2.33614,2.33614,0,0,0-1.6342-.582,2.91943,2.91943,0,0,0-2.0572.6142.63876.63876,0,1,1-.9121-.8945,4.1394,4.1394,0,0,1,3.0132-.9971,3.49811,3.49811,0,0,1,2.562,1.0293.63865.63865,0,0,1-.4853,1.0537Z"/><path class="cls-8" d="M62.4099,46.3057a.63893.63893,0,0,1-.4853-1.0537,3.496,3.496,0,0,1,2.5615-1.0293,4.1306,4.1306,0,0,1,3.0137.9971.6388.6388,0,1,1-.9122.8945,2.86813,2.86813,0,0,0-2.0581-.6142,2.33479,2.33479,0,0,0-1.6333.582A.63562.63562,0,0,1,62.4099,46.3057Z"/><path class="cls-10" d="M56.0606,71.0401a6.24953,6.24953,0,0,1-6.25-6.25H62.3111A6.25034,6.25034,0,0,1,56.0606,71.0401Z"/><polygon class="cls-4" points="56.061 80.496 39.8 80.496 56.061 89.762 72.321 80.496 56.061 80.496"/><path class="cls-5" d="M56.0601,86.7471a6.25081,6.25081,0,0,0,6.2505-6.251H49.8096A6.25042,6.25042,0,0,0,56.0601,86.7471Z"/><path class="cls-4" d="M59.1929,103.211a.76713.76713,0,0,1-.7671-.7666V87.0274a.76685.76685,0,0,1,1.5337,0v15.417A.767.767,0,0,1,59.1929,103.211Z"/><path class="cls-4" d="M52.9619,103.211a.767.767,0,0,1-.7666-.7666V87.0274a.76685.76685,0,0,1,1.5337,0v15.417A.76707.76707,0,0,1,52.9619,103.211Z"/><path class="cls-9" d="M55.9756,28.5215h-9.102v.7207c2.1923,0,5.3608,4.2862,9.102,4.2862s6.9097-4.2862,9.1021-4.2862v-.7207Z"/><path class="cls-9" d="M55.9756,10.7334c-5.126,0-14.9507,6.2305-17.8867,8.2969H73.8623C70.9263,16.9639,61.1016,10.7334,55.9756,10.7334Z"/><path class="cls-6" d="M56.0518,59.2579a3.52925,3.52925,0,0,1-3.0625-1.7911,3.06423,3.06423,0,0,0,6.124,0A3.52763,3.52763,0,0,1,56.0518,59.2579Z"/></g></g></g></svg>