<svg width="154" height="60" viewBox="0 0 154 60" fill="none" xmlns="http://www.w3.org/2000/svg">
<path d="M1.4 30C1.4 27.2533 2.01333 24.8 3.24 22.64C4.49333 20.4533 6.18667 18.76 8.32 17.56C10.48 16.3333 12.8933 15.72 15.56 15.72C18.68 15.72 21.4133 16.52 23.76 18.12C26.1067 19.72 27.7467 21.9333 28.68 24.76H22.24C21.6 23.4267 20.6933 22.4267 19.52 21.76C18.3733 21.0933 17.04 20.76 15.52 20.76C13.8933 20.76 12.44 21.1467 11.16 21.92C9.90667 22.6667 8.92 23.7333 8.2 25.12C7.50667 26.5067 7.16 28.1333 7.16 30C7.16 31.84 7.50667 33.4667 8.2 34.88C8.92 36.2667 9.90667 37.3467 11.16 38.12C12.44 38.8667 13.8933 39.24 15.52 39.24C17.04 39.24 18.3733 38.9067 19.52 38.24C20.6933 37.5467 21.6 36.5333 22.24 35.2H28.68C27.7467 38.0533 26.1067 40.28 23.76 41.88C21.44 43.4533 18.7067 44.24 15.56 44.24C12.8933 44.24 10.48 43.64 8.32 42.44C6.18667 41.2133 4.49333 39.52 3.24 37.36C2.01333 35.2 1.4 32.7467 1.4 30Z" fill="#082A45"/>
<path d="M39.0631 39.56H48.2631V44H33.4631V16.08H39.0631V39.56ZM72.4225 32.44C72.4225 33.24 72.3692 33.96 72.2625 34.6H56.0625C56.1958 36.2 56.7558 37.4533 57.7425 38.36C58.7292 39.2667 59.9425 39.72 61.3825 39.72C63.4625 39.72 64.9425 38.8267 65.8225 37.04H71.8625C71.2225 39.1733 69.9958 40.9333 68.1825 42.32C66.3692 43.68 64.1425 44.36 61.5025 44.36C59.3692 44.36 57.4492 43.8933 55.7425 42.96C54.0625 42 52.7425 40.6533 51.7825 38.92C50.8492 37.1867 50.3825 35.1867 50.3825 32.92C50.3825 30.6267 50.8492 28.6133 51.7825 26.88C52.7158 25.1467 54.0225 23.8133 55.7025 22.88C57.3825 21.9467 59.3158 21.48 61.5025 21.48C63.6092 21.48 65.4892 21.9333 67.1425 22.84C68.8225 23.7467 70.1158 25.04 71.0225 26.72C71.9558 28.3733 72.4225 30.28 72.4225 32.44ZM66.6225 30.84C66.5958 29.4 66.0758 28.2533 65.0625 27.4C64.0492 26.52 62.8092 26.08 61.3425 26.08C59.9558 26.08 58.7825 26.5067 57.8225 27.36C56.8892 28.1867 56.3158 29.3467 56.1025 30.84H66.6225ZM75.07 32.84C75.07 30.6 75.51 28.6133 76.39 26.88C77.2967 25.1467 78.51 23.8133 80.03 22.88C81.5767 21.9467 83.2967 21.48 85.19 21.48C86.8433 21.48 88.2833 21.8133 89.51 22.48C90.7633 23.1467 91.7633 23.9867 92.51 25V21.84H98.15V44H92.51V40.76C91.79 41.8 90.79 42.6667 89.51 43.36C88.2567 44.0267 86.8033 44.36 85.15 44.36C83.2833 44.36 81.5767 43.88 80.03 42.92C78.51 41.96 77.2967 40.6133 76.39 38.88C75.51 37.12 75.07 35.1067 75.07 32.84ZM92.51 32.92C92.51 31.56 92.2433 30.4 91.71 29.44C91.1767 28.4533 90.4567 27.7067 89.55 27.2C88.6433 26.6667 87.67 26.4 86.63 26.4C85.59 26.4 84.63 26.6533 83.75 27.16C82.87 27.6667 82.15 28.4133 81.59 29.4C81.0567 30.36 80.79 31.5067 80.79 32.84C80.79 34.1733 81.0567 35.3467 81.59 36.36C82.15 37.3467 82.87 38.1067 83.75 38.64C84.6567 39.1733 85.6167 39.44 86.63 39.44C87.67 39.44 88.6433 39.1867 89.55 38.68C90.4567 38.1467 91.1767 37.4 91.71 36.44C92.2433 35.4533 92.51 34.28 92.51 32.92ZM109.219 25.28C109.939 24.1067 110.873 23.1867 112.019 22.52C113.193 21.8533 114.526 21.52 116.019 21.52V27.4H114.539C112.779 27.4 111.446 27.8133 110.539 28.64C109.659 29.4667 109.219 30.9067 109.219 32.96V44H103.619V21.84H109.219V25.28ZM132.071 21.52C134.711 21.52 136.845 22.36 138.471 24.04C140.098 25.6933 140.911 28.0133 140.911 31V44H135.311V31.76C135.311 30 134.871 28.6533 133.991 27.72C133.111 26.76 131.911 26.28 130.391 26.28C128.845 26.28 127.618 26.76 126.711 27.72C125.831 28.6533 125.391 30 125.391 31.76V44H119.791V21.84H125.391V24.6C126.138 23.64 127.085 22.8933 128.231 22.36C129.405 21.8 130.685 21.52 132.071 21.52ZM148.717 44.28C147.703 44.28 146.863 43.9733 146.197 43.36C145.557 42.72 145.237 41.9333 145.237 41C145.237 40.0667 145.557 39.2933 146.197 38.68C146.863 38.04 147.703 37.72 148.717 37.72C149.703 37.72 150.517 38.04 151.157 38.68C151.797 39.2933 152.117 40.0667 152.117 41C152.117 41.9333 151.797 42.72 151.157 43.36C150.517 43.9733 149.703 44.28 148.717 44.28Z" fill="#9351F0"/>
</svg>
