<svg width="130" height="32" viewBox="0 0 130 32" fill="none" xmlns="http://www.w3.org/2000/svg">
<path d="M0.31 3.826C0.31 2.608 1.318 1.6 2.536 1.6H17.866C19.336 1.6 20.512 2.776 20.512 4.33C20.512 5.8 19.336 6.976 17.866 6.976H5.98V13.738H16.774C18.454 13.738 19.42 14.62 19.42 16.258C19.42 17.896 18.454 18.82 16.774 18.82H5.98V25.624H17.866C19.336 25.624 20.512 26.8 20.512 28.27C20.512 29.824 19.336 31 17.866 31H2.536C1.318 31 0.31 29.992 0.31 28.774V3.826ZM34.8881 26.758C38.2901 26.758 40.7261 24.154 40.7261 20.332C40.7261 16.594 38.2901 13.99 34.8881 13.99C31.4021 13.99 28.9661 16.594 28.9661 20.332C28.9661 24.154 31.4021 26.758 34.8881 26.758ZM23.6741 20.332C23.6741 13.78 27.8741 9.118 33.7961 9.118C36.5261 9.118 38.8781 10.084 40.6001 11.806V3.448C40.6001 1.978 41.8181 0.759999 43.2881 0.759999C44.8001 0.759999 46.0181 1.978 46.0181 3.448V20.332C46.0181 26.968 41.3981 31.63 34.8881 31.63C28.3361 31.63 23.6741 26.968 23.6741 20.332ZM51.317 4.414C51.443 2.86 52.577 1.6 54.383 1.6C56.231 1.6 57.365 2.818 57.785 3.91L64.925 22.516L72.023 3.91C72.443 2.818 73.577 1.6 75.425 1.6C77.231 1.6 78.365 2.86 78.491 4.414L80.759 30.16C80.801 30.622 80.465 31 80.003 31H76.013C75.551 31 75.131 30.622 75.089 30.16L73.829 12.814L67.697 29.32C67.235 30.58 66.983 31.084 64.925 31.084C62.909 31.084 62.615 30.58 62.153 29.32L55.979 12.814L54.719 30.16C54.677 30.622 54.257 31 53.795 31H49.805C49.343 31 49.007 30.622 49.049 30.16L51.317 4.414ZM94.6459 31.63C88.1359 31.63 83.5159 26.968 83.5159 20.332C83.5159 13.78 88.1359 9.118 94.6459 9.118C101.198 9.118 105.86 13.78 105.86 20.332C105.86 26.968 101.198 31.63 94.6459 31.63ZM88.8079 20.332C88.8079 24.154 91.2439 26.758 94.6459 26.758C98.1319 26.758 100.568 24.154 100.568 20.332C100.568 16.594 98.1319 13.99 94.6459 13.99C91.2439 13.99 88.8079 16.594 88.8079 20.332ZM109.485 11.848C109.485 10.378 110.703 9.16 112.215 9.16C113.475 9.16 114.567 10.042 114.819 11.218C116.373 9.874 118.389 9.118 120.741 9.118C125.991 9.118 129.687 13.066 129.687 18.736V30.202C129.687 30.622 129.309 31 128.889 31H125.067C124.647 31 124.269 30.622 124.269 30.202V18.862C124.269 15.922 122.337 13.864 119.607 13.864C116.835 13.864 114.903 15.922 114.903 18.862V30.202C114.903 30.622 114.525 31 114.105 31H110.283C109.863 31 109.485 30.622 109.485 30.202V11.848Z" fill="#342F43"/>
</svg>
