<svg xmlns="http://www.w3.org/2000/svg" viewBox="0 0 1847.8394 1830.00001"><defs><style>.cls-1{fill:#fff;}</style></defs><g id="Layer_2" data-name="Layer 2"><g id="Illustration"><g id="Coding_workshop" data-name="Coding workshop"><path d="M1217.279,981.74691l-350.5609,2.1981c-2.2712,0-3.0164,2.1106-3.0164,4.1375v298.256c0,28.5563-199.1791,102.7489-201.1206,98.9757l-.2427,31.5649c-.0142,5.8763,5.1527,11.0917,11.7394,11.0917h298.3913a102.73584,102.73584,0,0,0,39.459-8.2209l161.6046-68.0482c29.0919-12.2483,47.4424-38.5578,47.4424-67.2563V985.88431A3.94056,3.94056,0,0,0,1217.279,981.74691Z"/><path class="cls-1" d="M828.19951,966.57241v298.3208c0,29.4078-18.9261,56.2034-48.6619,68.8955l-109.0155,46.531c-7.1213,3.0396-4.6943,12.5821,3.2002,12.5821h299.5266a100.57948,100.57948,0,0,0,38.953-7.7882l120.7861-50.8541c29.9593-12.6136,49.0723-39.5152,49.0723-69.0695V966.57241a2.35677,2.35677,0,0,0-2.4791-2.2116H830.67861A2.35677,2.35677,0,0,0,828.19951,966.57241Z"/><path d="M973.24921,1395.13221H673.72181c-5.5299,0-8.7479-3.6307-9.483-7.2288a8.56571,8.56571,0,0,1,5.408-9.6354l109.0151-46.5306c28.7375-12.2654,47.3071-38.5037,47.3071-66.8437V966.57181a4.58613,4.58613,0,0,1,4.7099-4.4409h348.9024a4.58584,4.58584,0,0,1,4.7088,4.4409v298.6181c0,30.3067-19.7979,58.2253-50.4379,71.1256l-120.785,50.8539A103.47242,103.47242,0,0,1,973.24921,1395.13221Zm-142.8197-428.4743v298.2358c0,30.1292-19.6324,57.9781-50.0165,70.947l-109.0151,46.5306c-2.1529.9181-3.1951,2.6528-2.7889,4.6392.3452,1.689,1.8916,3.6612,5.1128,3.6612h299.5274a98.99662,98.99662,0,0,0,38.0887-7.6132l120.7849-50.8551c28.9804-12.2011,47.7068-38.5058,47.7068-67.0135V966.60021c-.0153.0413-.098-.0098-.2483-.0088H830.67891A.44278.44278,0,0,0,830.42951,966.65791Z"/><path d="M172.89761,1137.53751l1511,3.3915c13.2263,0,26.408-9.9371,28.0898-23.0809l122.7745-945.4783c2.9321-22.9147-14.8117-45.703-37.6049-45.1288l-1493.4748,7.892Z"/><path class="cls-1" d="M1737.82241,132.61141c25.9955,0,49.4687,26.354,46.142,52.2032l-119.2047,930.7273c-1.6915,13.1436-15.7586,24.265-28.9766,24.265l-1484.254-2.4107c-15.8542,0-26.4448-13.1568-24.4159-28.9218l123.4452-947.9837c1.6915-13.1436,10.3813-27.8793,23.5994-27.8793Z"/><path d="M1635.78361,1142.03751l-1484.2573-2.4111a26.37869,26.37869,0,0,1-20.1649-8.8143,28.59431,28.59431,0,0,1-6.46-22.6217l123.4454-947.9877c1.86-14.4553,11.539-29.8221,25.8114-29.8221h1463.6644c13.1202,0,26.1947,6.3107,35.8715,17.3139,9.5897,10.902,14.1374,24.5362,12.4821,37.4049l-119.2037,930.7259C1665.17351,1129.78951,1650.60051,1142.03751,1635.78361,1142.03751ZM274.15821,134.84111c-11.7241,0-19.7697,13.362-21.3879,25.9334l-123.4454,947.9876c-.9398,7.3006.9725,14.0873,5.3851,19.1032a21.98168,21.98168,0,0,0,16.8196,7.3006l1484.2584,2.411c12.4995,0,25.256-10.6384,26.7588-22.3189l119.2037-930.7271c1.4941-11.5989-2.6637-23.9514-11.4061-33.8906-8.8296-10.0406-20.6844-15.7992-32.5218-15.7992Z"/><path d="M1600.87481,1099.67331l-1402.3627-2.2172a24.44359,24.44359,0,0,1-18.685-8.1696,26.48416,26.48416,0,0,1-5.9851-20.9523l113.5671-872.1281c1.7217-13.3729,10.6907-27.5909,23.922-27.5909h1383.4173c12.1206,0,24.1997,5.8273,33.136,15.9887,8.8557,10.0678,13.0571,22.662,11.5281,34.5517l-109.6663,856.2473C1628.08011,1088.33251,1614.58961,1099.67331,1600.87481,1099.67331ZM311.33111,173.07581c-10.6831,0-18.0196,12.2131-19.4985,23.7031l-113.5671,872.127a21.73522,21.73522,0,0,0,4.9114,17.4338,20.04186,20.04186,0,0,0,15.3385,6.6559l1402.3637,2.2172c11.4171,0,23.0693-9.7128,24.4415-20.3784l109.6662-856.2462c1.3678-10.6199-2.4415-21.9335-10.4521-31.0386-8.0891-9.1987-18.9464-14.4738-29.7863-14.4738Z"/><path d="M1547.29831,291.25473H977.25011a2.23036,2.23036,0,0,1-2.2106-2.5275l3.842-28.5775a2.22992,2.22992,0,0,1,2.2106-1.9329h570.0482a2.23051,2.23051,0,0,1,2.2107,2.5275l-3.842,28.5775A2.23,2.23,0,0,1,1547.29831,291.25473Zm-567.4977-4.4605h565.5463l3.243-24.1169H983.04361Z"/><polygon points="1670.312 336.143 1089.513 336.143 1093.355 307.565 1674.154 307.565 1670.312 336.143"/><path d="M1593.94441,385.491h-300.2036a2.23048,2.23048,0,0,1-2.2107-2.52748l3.842-28.5786a2.23,2.23,0,0,1,2.2107-1.93292h300.2036a2.23039,2.23039,0,0,1,2.2106,2.52752l-3.8419,28.5786A2.23,2.23,0,0,1,1593.94441,385.491Zm-297.6532-4.46048h295.7017l3.2431-24.118h-295.7018Z"/><path d="M1496.62081,668.19672h-570.046a2.23053,2.23053,0,0,1-2.2107-2.5276l3.842-28.5774a2.23,2.23,0,0,1,2.2107-1.933h570.046a2.23035,2.23035,0,0,1,2.2106,2.5275l-3.8419,28.5775A2.23011,2.23011,0,0,1,1496.62081,668.19672Zm-567.4956-4.4606h565.5441l3.2431-24.1169H932.36831Z"/><path d="M1188.18,715.31432h-149.3449a2.23039,2.23039,0,0,1-2.2107-2.5276l3.842-28.5774a2.22993,2.22993,0,0,1,2.2106-1.933h135.09a2.23025,2.23025,0,1,1,0,4.4605h-133.1385l-3.243,24.1169H1188.18a2.2303,2.2303,0,1,1,0,4.4606Z"/><path d="M1619.636,715.31432h-358.7328a2.2303,2.2303,0,1,1,0-4.4606h356.7813l3.2431-24.1169H1241.543a2.23025,2.23025,0,0,1,0-4.4605h381.935a2.23038,2.23038,0,0,1,2.2106,2.5276l-3.8419,28.5774A2.23011,2.23011,0,0,1,1619.636,715.31432Z"/><path d="M1613.30021,762.43192h-310.2594a2.2303,2.2303,0,0,1,0-4.4606h308.3079l3.2431-24.1169h-328.633a2.23025,2.23025,0,0,1,0-4.4605h331.1834a2.23053,2.23053,0,0,1,2.2107,2.5276l-3.842,28.5774A2.23011,2.23011,0,0,1,1613.30021,762.43192Z"/><path d="M1235.84761,807.58822h-211.5681a2.23038,2.23038,0,0,1-2.2106-2.5276l3.842-28.5774a2.23,2.23,0,0,1,2.2106-1.933H1202.252a2.23025,2.23025,0,1,1,0,4.4605H1030.073l-3.243,24.117h209.0176a2.23025,2.23025,0,0,1,0,4.4605Z"/><polygon points="1528.294 430.378 958.247 430.378 962.089 401.8 1532.136 401.8 1528.294 430.378"/><polygon points="1568.205 477.496 1070.509 477.496 1074.351 448.918 1568.964 448.918 1568.205 477.496"/><path d="M1498.57231,573.96142H1268.402a2.23023,2.23023,0,0,1-2.2106-2.5275l3.8419-28.57749a2.23,2.23,0,0,1,2.2107-1.9329h230.1703a2.23036,2.23036,0,0,1,2.2106,2.52748l-3.842,28.57751A2.22992,2.22992,0,0,1,1498.57231,573.96142Zm-227.6198-4.4605h225.6683l3.243-24.11691h-225.6683Z"/><polygon points="1561.058 618.814 1330.887 618.814 1334.729 590.236 1564.9 590.236 1561.058 618.814"/><polygon points="1549.983 524.613 1274.737 524.613 1278.579 496.036 1551.122 496.036 1549.983 524.613"/><polygon class="cls-1" points="1471.283 854.437 901.236 854.437 905.078 825.859 1475.125 825.859 1471.283 854.437"/><path d="M1314.42951,903.78472h-300.931a2.23038,2.23038,0,0,1-2.2107-2.5276l3.842-28.5774a2.23,2.23,0,0,1,2.2107-1.933h286.8394a2.23025,2.23025,0,1,1,0,4.4605h-284.888l-3.243,24.1169h298.3806a2.2303,2.2303,0,1,1,0,4.4606Z"/><path d="M1472.73041,950.90231h-255.0037a2.23038,2.23038,0,0,1-2.2107-2.5276l3.842-28.57739a2.23,2.23,0,0,1,2.2106-1.933h242.0513a2.23025,2.23025,0,0,1,0,4.4605h-240.0998l-3.243,24.11689h252.4533a2.2303,2.2303,0,1,1,0,4.4606Z"/><polygon class="cls-1" points="1452.279 995.79 882.232 995.79 886.074 967.212 1456.121 967.212 1452.279 995.79"/><path d="M1470.45221,1045.13751H994.49331a2.23053,2.23053,0,0,1-2.2107-2.5276l3.842-28.5774a2.23011,2.23011,0,0,1,2.2107-1.933h474.3951a2.23025,2.23025,0,1,1,0,4.4605h-472.4436l-3.2431,24.117h473.4085a2.23025,2.23025,0,1,1,0,4.4605Z"/><polygon points="885.531 618.287 829.999 618.287 833.69 590.832 889.222 590.832 885.531 618.287"/><polygon points="931.877 289.03 874.001 289.03 877.843 260.452 935.719 260.452 931.877 289.03"/><polygon points="937.7 245.721 879.824 245.721 883.666 217.143 941.542 217.143 937.7 245.721"/><polygon points="925.098 336.148 867.667 336.148 871.509 307.57 928.94 307.57 925.098 336.148"/><polygon points="916.817 383.265 862.306 383.265 866.148 354.687 920.659 354.687 916.817 383.265"/><polygon points="910.777 430.383 855.292 430.383 859.134 401.805 914.619 401.805 910.777 430.383"/><polygon points="904.149 477.501 848.664 477.501 852.506 448.923 907.991 448.923 904.149 477.501"/><polygon points="893.122 569.844 838.135 569.844 841.977 541.267 896.964 541.267 893.122 569.844"/><polygon points="898.068 522.727 845.503 522.727 849.345 494.149 901.91 494.149 898.068 522.727"/><polygon points="866.289 761.411 810.757 761.411 814.448 733.956 869.981 733.956 866.289 761.411"/><polygon points="873.88 712.968 818.893 712.968 822.735 684.39 877.722 684.39 873.88 712.968"/><polygon points="878.826 665.851 826.261 665.851 830.103 637.273 882.668 637.273 878.826 665.851"/><polygon points="828.819 1040.125 773.286 1040.125 776.977 1012.67 832.51 1012.67 828.819 1040.125"/><polygon points="860.105 805.103 805.593 805.103 809.435 776.525 863.947 776.525 860.105 805.103"/><polygon points="854.064 852.22 798.579 852.22 802.421 823.643 857.906 823.643 854.064 852.22"/><polygon points="847.436 899.338 791.951 899.338 795.793 870.76 851.278 870.76 847.436 899.338"/><polygon points="836.41 991.682 781.422 991.682 785.264 963.104 840.252 963.104 836.41 991.682"/><polygon points="841.355 944.564 788.791 944.564 792.633 915.986 845.197 915.986 841.355 944.564"/><polygon points="637.538 239.459 363.135 239.459 366.826 212.004 641.229 212.004 637.538 239.459"/><path d="M685.75741,289.36863H396.51131a2.23038,2.23038,0,0,1-2.2107-2.52762l3.842-28.57738a2.23086,2.23086,0,0,1,2.2107-1.933h289.2461a2.23053,2.23053,0,0,1,2.2107,2.5276l-3.842,28.5774A2.231,2.231,0,0,1,685.75741,289.36863Zm-286.6957-4.4605H683.807l3.242-24.1169H402.30361Z"/><path d="M761.36751,336.48623H424.37981a2.23053,2.23053,0,0,1-2.2107-2.5276l3.842-28.5774a2.23094,2.23094,0,0,1,2.2107-1.933h336.9877a2.23053,2.23053,0,0,1,2.2107,2.5276l-3.842,28.5774A2.23085,2.23085,0,0,1,761.36751,336.48623Zm-334.4373-4.4605h332.4869l3.242-24.1169H430.17221Z"/><path d="M804.57341,383.60383h-281.218a2.23053,2.23053,0,0,1-2.2107-2.5276l3.8431-28.5774a2.23086,2.23086,0,0,1,2.2107-1.933h281.2169a2.23038,2.23038,0,0,1,2.2107,2.5276l-3.842,28.5774A2.23078,2.23078,0,0,1,804.57341,383.60383Zm-278.6676-4.4605h276.7173l3.2419-24.1169H529.14891Z"/><polygon points="534.715 616.401 312.459 616.401 316.15 588.946 538.407 588.946 534.715 616.401"/><path d="M538.18321,666.30942H375.65161a2.23036,2.23036,0,0,1-2.2107-2.5275l3.842-28.5775a2.23074,2.23074,0,0,1,2.2106-1.9329h162.5316a2.23036,2.23036,0,0,1,2.2107,2.52749l-3.842,28.57751A2.23075,2.23075,0,0,1,538.18321,666.30942Zm-159.9812-4.4605h158.0308l3.2419-24.11691H381.44391Z"/><path d="M596.38021,713.427H440.791a2.23035,2.23035,0,0,1-2.2107-2.52749l3.842-28.57751a2.23075,2.23075,0,0,1,2.2106-1.93289h155.5893a2.23051,2.23051,0,0,1,2.2107,2.5275l-3.842,28.5775A2.23084,2.23084,0,0,1,596.38021,713.427Zm-153.0388-4.46049h151.0884l3.242-24.1169H446.58331Z"/><path d="M699.39061,760.54462H502.49571a2.23036,2.23036,0,0,1-2.2107-2.5275l3.8431-28.5775a2.23075,2.23075,0,0,1,2.2106-1.9329h196.8938a2.23035,2.23035,0,0,1,2.2107,2.5275l-3.842,28.5775A2.23075,2.23075,0,0,1,699.39061,760.54462Zm-194.3445-4.4605h192.3941l3.2419-24.1169h-192.393Z"/><polygon points="540.007 428.491 341.283 428.491 345.125 399.914 543.849 399.914 540.007 428.491"/><path d="M786.97961,477.839H479.91751a2.23048,2.23048,0,0,1-2.2107-2.52748l3.842-28.57752a2.231,2.231,0,0,1,2.2107-1.933h307.0621a2.23055,2.23055,0,0,1,2.2107,2.52762l-3.842,28.57738A2.23084,2.23084,0,0,1,786.97961,477.839Zm-304.5117-4.46048h302.5613l3.242-24.1169H485.70991Z"/><polygon points="529.831 522.652 331.107 522.652 334.949 494.074 533.673 494.074 529.831 522.652"/><path d="M776.804,572.00022H469.74191a2.23038,2.23038,0,0,1-2.2106-2.5276l3.8419-28.57849a2.23094,2.23094,0,0,1,2.2107-1.933H780.646a2.23053,2.23053,0,0,1,2.2107,2.5276l-3.842,28.57849A2.23094,2.23094,0,0,1,776.804,572.00022Zm-304.5116-4.4606h302.5612l3.242-24.118H475.53431Z"/><polygon points="534.209 804.871 287.121 804.871 290.812 777.416 537.9 777.416 534.209 804.871"/><path d="M694.171,854.78092H290.68041a2.23036,2.23036,0,0,1-2.2106-2.5275l3.842-28.5786a2.23068,2.23068,0,0,1,2.2106-1.9329H698.013a2.23036,2.23036,0,0,1,2.2106,2.5275l-3.8419,28.57859A2.23085,2.23085,0,0,1,694.171,854.78092Zm-400.9401-4.4605h398.9897l3.2419-24.118H296.47281Z"/><path d="M692.80211,901.89852H461.15521a2.23051,2.23051,0,0,1-2.2107-2.52751l3.842-28.57859a2.23084,2.23084,0,0,1,2.2107-1.9329h231.6469a2.2305,2.2305,0,0,1,2.2107,2.52749l-3.842,28.57861A2.23086,2.23086,0,0,1,692.80211,901.89852ZM463.70561,897.438h227.1461l3.242-24.118H466.94761Z"/><polygon points="595.65 993.903 440.735 993.903 428.208 965.326 599.492 965.326 595.65 993.903"/><path d="M739.115,945.28741H516.93141a2.2305,2.2305,0,0,1-2.2107-2.52749l3.842-28.5775a2.23093,2.23093,0,0,1,2.2107-1.933h222.1835a2.23038,2.23038,0,0,1,2.2107,2.52759l-3.842,28.57741A2.23075,2.23075,0,0,1,739.115,945.28741Zm-219.6332-4.46049h217.6828l3.2419-24.11691H522.72381Z"/><path d="M641.45381,1043.25131H464.15861a2.23025,2.23025,0,0,1,0-4.4605h175.3448l3.2419-24.1169H455.92041a2.23025,2.23025,0,1,1,0-4.4605h189.3754a2.23036,2.23036,0,0,1,2.2106,2.5275l-3.842,28.5775A2.23075,2.23075,0,0,1,641.45381,1043.25131Z"/><polygon class="cls-1" points="1757.424 1669.766 1751.858 1723.146 1716.002 1727.377 1716.002 1664.084 1757.424 1669.766"/><path d="M1716.00131,1729.60651a2.23084,2.23084,0,0,1-2.2303-2.2302v-63.2925a2.23118,2.23118,0,0,1,2.533-2.2096l41.4233,5.6824a2.22734,2.22734,0,0,1,1.9144,2.4404l-5.5669,53.3794a2.22689,2.22689,0,0,1-1.9559,1.9841l-35.8563,4.2308A2.336,2.336,0,0,1,1716.00131,1729.60651Zm2.2303-62.9657v58.2264l31.5917-3.7276,5.1597-49.4568Z"/><path class="cls-1" d="M1710.354,1820.30251a248.862,248.862,0,0,0,68.2381-.0326,16.11629,16.11629,0,0,0,13.3816-19.8017c-6.333-25.9129-17.2473-75.0816-35.9819-97.8672l-4.6533,12.356-6.4266-11.6347a5.69056,5.69056,0,0,0-4.2582-2.8992l-14.0761-1.7957a5.69489,5.69489,0,0,0-6.2849,4.5041l-2.2397,10.7198-8.5812-14.0536-3.8119,52.4911a217.672,217.672,0,0,1-5.0515,33.3927l-3.8382,16.5559A16.07722,16.07722,0,0,0,1710.354,1820.30251Z"/><path d="M1744.252,1824.86861a245.47684,245.47684,0,0,1-34.2119-2.3576,18.35762,18.35762,0,0,1-15.4811-20.5635l3.8768-16.7706a216.2498,216.2498,0,0,0,5.0006-33.0488l3.8115-52.4918a2.2299,2.2299,0,0,1,4.1273-1.0008l5.6454,9.2466,1.089-5.2065a7.96444,7.96444,0,0,1,8.7512-6.2595l14.0763,1.7947a7.945,7.945,0,0,1,5.9263,4.0336l4.0903,7.4041,2.9512-7.8343a2.22954,2.22954,0,0,1,3.8093-.6305c17.7811,21.6264,28.6014,66.3972,35.0657,93.1473l1.3612,5.6083a18.34653,18.34653,0,0,1-15.2416,22.539A251.24847,251.24847,0,0,1,1744.252,1824.86861Zm-33.0597-117.9731-3.3084,45.5549a220.78155,220.78155,0,0,1-5.1008,33.7338l-3.8399,16.5571a13.85187,13.85187,0,0,0,11.7242,15.3527,246.18481,246.18481,0,0,0,67.6179-.0327,13.88732,13.88732,0,0,0,11.5216-17.0634l-1.3612-5.6193c-6.0723-25.1253-16.0409-66.3721-31.7791-88.2403l-3.2409,8.6053a2.22882,2.22882,0,0,1-4.038.2918l-6.4272-11.6348a3.47554,3.47554,0,0,0-2.5875-1.7642l-14.0785-1.7957a3.47386,3.47386,0,0,0-3.8202,2.7475l-2.239,10.719a2.22977,2.22977,0,0,1-4.0859.7057Z"/><path d="M1743.13691,1809.01291c-18.232,0-29.3223-3.903-29.9997-4.148a2.23067,2.23067,0,0,1,1.5159-4.1959c.2352.086,23.9122,8.3515,58.8385.3419a2.23014,2.23014,0,1,1,.9975,4.3473A140.2406,140.2406,0,0,1,1743.13691,1809.01291Z"/><path d="M1760.45191,1768.00241c-.0261,0-.0501,0-.0762-.0011l-33.6086-1.1173a2.23043,2.23043,0,0,1,.1481-4.4584l33.6086,1.1173a2.23038,2.23038,0,0,1-.0719,4.4595Z"/><polygon class="cls-1" points="1589.477 1641.345 1584.104 1719.242 1540.958 1719.242 1538.952 1641.345 1589.477 1641.345"/><path d="M1584.10421,1721.47171h-43.146a2.23218,2.23218,0,0,1-2.2303-2.1725l-2.0059-77.897a2.23344,2.23344,0,0,1,2.2303-2.288h50.525a2.23079,2.23079,0,0,1,2.2259,2.3838l-5.3731,77.897A2.231,2.231,0,0,1,1584.10421,1721.47171Zm-40.9724-4.4605h38.8903l5.066-73.4365h-45.8468Z"/><path class="cls-1" d="M1595.37551,1763.21721a15.66017,15.66017,0,0,1-12.0243,15.509c-24.8049,5.8117-80.6801,18.7488-96.619,21.1379-20.686,3.1004-46.1102-3.2791-57.0393-15.4582-10.9289-12.1788,24.4755-41.26,41.2784-51.8402,24.9618-15.7177,48.9415-46.7837,58.9971-48.1815,10.0558-1.3978,28.8261,27.9656,28.8261,27.9656l30.6827-12.9718S1594.82461,1725.84381,1595.37551,1763.21721Z"/><path d="M1475.919,1802.87531c-19.0248.0011-38.6224-6.656-47.8854-16.9797a10.50381,10.50381,0,0,1-2.4938-8.8655c2.1388-15.32,30.7315-37.8448,44.2416-46.352,12.2599-7.7188,24.1605-19.0836,34.6584-29.1111,11.3016-10.793,19.4669-18.5924,25.2212-19.3917,10.0775-1.4103,25.1057,19.9994,29.9844,27.3937l28.9629-12.2447a2.23133,2.23133,0,0,1,3.0557,1.6117c.0523.2668,5.3928,27.0986,5.9416,64.2486a17.98808,17.98808,0,0,1-13.7453,17.7136c-23.7445,5.5626-80.7055,18.7591-96.7965,21.1712A75.30015,75.30015,0,0,1,1475.919,1802.87531Zm54.8135-116.3135a3.3166,3.3166,0,0,0-.4574.0315c-4.3276.6012-13.2792,9.1498-22.7556,18.2004-10.6504,10.1713-22.7208,21.7005-35.3597,29.6589-13.8281,8.7076-40.404,30.3165-42.203,43.1939a6.16371,6.16371,0,0,0,1.3961,5.2697c10.1974,11.3647,34.3753,17.8377,55.0488,14.7428,15.9298-2.3882,72.7493-15.5541,96.4393-21.1037a13.49947,13.49947,0,0,0,10.3041-13.3053,402.47337,402.47337,0,0,0-5.3601-60.7355l-28.1222,11.8896a2.22865,2.22865,0,0,1-2.7486-.8527C1549.62441,1702.14971,1536.881,1686.56181,1530.73251,1686.56181Z"/><path d="M1476.22831,1783.78081c-13.4862,0-25.5501-2.215-34.2577-7.9235a2.23,2.23,0,0,1,2.4437-3.7309c31.9969,20.9719,117.2784-10.0558,134.0489-16.4874a2.23032,2.23032,0,0,1,1.5987,4.1643C1562.357,1766.59321,1513.78561,1783.78081,1476.22831,1783.78081Z"/><path d="M1524.16371,1741.39711a2.2148,2.2148,0,0,1-1.5594-.6371l-17.8727-17.5023a2.22939,2.22939,0,1,1,3.1189-3.1864l17.8726,17.5023a2.22921,2.22921,0,0,1-1.5594,3.8235Z"/><path class="cls-1" d="M1769.65911,1133.52291s13.3692,243.5166,20.3656,327.5797c6.9968,84.063-16.3602,219.1904-16.3602,219.1904l-66.5988-3.5224s-4.5642-164.298-9.5118-209.9225c0,0-28.1312-61.8516-36.4687-117.0147-8.3378-55.1632-36.739-142.2961-36.739-142.2961s-23.0645,434.8955-25.287,469.0628c0,0-52.2243,2.3404-70.9478-9.5169,0,0-33.176-158.5774-28.4124-244.8545,4.764-86.277-.468-300.6378-.468-300.6378Z"/><path d="M1773.66581,1682.52381c-.0414,0-.0806-.0011-.1198-.0033l-66.5986-3.5229a2.2305,2.2305,0,0,1-2.1127-2.1649c-.0435-1.6379-4.5934-163.8929-9.4612-209.3933-2.2324-4.9898-28.5186-64.5154-36.4944-117.273-6.4142-42.4458-24.9903-104.6275-32.9552-130.2483-3.7701,70.983-22.6512,426.2724-24.6397,456.8264a2.23162,2.23162,0,0,1-2.1257,2.0832c-2.1671.098-53.143,2.2346-72.2396-9.8609a2.22165,2.22165,0,0,1-.9889-1.4276c-.3332-1.5878-33.1838-159.8538-28.4576-245.4337,4.7045-85.2009-.4204-298.3174-.4726-300.4606a2.22586,2.22586,0,0,1,.6686-1.6465,2.275,2.275,0,0,1,1.6596-.636l270.4283,11.9321a2.22807,2.22807,0,0,1,2.1279,2.1061c.1351,2.435,13.4491,244.447,20.3621,327.5168,6.9391,83.3822-16.152,218.4014-16.3851,219.7562A2.22938,2.22938,0,0,1,1773.66581,1682.52381Zm-64.4294-7.8713,62.5585,3.3084c2.8075-16.9154,22.4442-139.3251,16.0083-216.6733-6.5819-79.084-18.9551-302.0015-20.2597-325.6262l-266.0266-11.7372c.5511,23.7869,4.8548,217.943.4073,298.4275-4.5019,81.5494,25.4477,230.0297,28.1767,243.3286,16.4569,9.5668,57.34,9.0245,66.8578,8.7588,2.8271-45.9916,24.9337-462.744,25.1602-467.0194a2.23156,2.23156,0,0,1,4.3495-.5739c.2831.8734,28.5535,87.9419,36.8211,142.6542,8.1936,54.2113,36.0153,115.8093,36.2941,116.4246a2.25621,2.25621,0,0,1,.1873.6828C1704.373,1509.03251,1708.68761,1655.51561,1709.23641,1674.65251Z"/><path d="M1730.17571,1469.06411h-20.3599a2.23025,2.23025,0,1,1,0-4.4605h20.3599a2.23025,2.23025,0,0,1,0,4.4605Z"/><path d="M1564.805,1595.54671a2.23052,2.23052,0,0,1-2.2302-2.19c-.7101-39.0274-45.3502-112.4192-45.801-113.1565a2.22941,2.22941,0,1,1,3.8027-2.3282c1.8666,3.0502,45.727,75.1647,46.4588,115.4042a2.23122,2.23122,0,0,1-2.1889,2.2705Z"/><path class="cls-1" d="M1458.18111,748.28782c-3.6932-.2916-34.3848,52.4007-48.8197,77.5604a14.52339,14.52339,0,0,1-20.2505,5.1619l-112.85-69.6658a74.17266,74.17266,0,0,1-23.0743-22.3747c-9.4248-14.36161-15.0329-28.9597-27.6479-39.1602-10.2617-8.2978-20.6528-17.5175-23.7636-19.9298-1.9437-1.5072-11.0003,4.9333-4.181,16.3737,2.0948,3.5143,9.9245,10.6396,12.0671,13.8742a14.55843,14.55843,0,0,1-.3824,16.9093c-4.0511,5.2045-7.4284,13.5416-2.8814,25.1467,6.7248,17.1634,21.9651,21.4112,30.596,22.4087a17.51913,17.51913,0,0,1,11.1969,5.9016L1352.33,899.82372a50.22773,50.22773,0,0,0,64.099,9.91029c33.86-20.68289,77.4508-62.35989,108.8526-115.041Z"/><path d="M1390.252,919.35512a52.47734,52.47734,0,0,1-39.6024-18.0642l-104.1408-119.3301a15.27606,15.27606,0,0,0-9.7726-5.1531c-9.03-1.0433-25.2495-5.5245-32.4151-23.8109-5.0028-12.7674-1.0215-21.9095,3.1973-27.3295a12.25515,12.25515,0,0,0,.2832-14.30831,62.32344,62.32344,0,0,0-5.2664-5.95569c-2.7574-2.9054-5.6062-5.91-6.8585-8.0074-4.9354-8.2807-2.5439-14.8822,1.0018-18.0196,2.2608-2.0016,4.857-2.5036,6.4643-1.2589,1.3439,1.0422,3.9618,3.2801,7.2767,6.1125,4.4649,3.8159,10.5807,9.042,16.5223,13.8445,9.2412,7.4737,14.7624,17.0634,20.6059,27.2162,2.3479,4.0815,4.7786,8.3025,7.5032,12.4548a72.38291,72.38291,0,0,0,22.3811,21.7004l112.8505,69.6664a12.29447,12.29447,0,0,0,17.1451-4.3734c45.3763-79.0993,48.6891-78.8259,50.9302-78.6746a2.22228,2.22228,0,0,1,1.0912.3899l67.0996,46.4054a2.23017,2.23017,0,0,1,.649,2.9762c-33.7632,56.6387-78.7562,96.9566-109.6053,115.8017A52.3528,52.3528,0,0,1,1390.252,919.35512ZM1200.80581,681.955a5.70327,5.70327,0,0,0-2.6484,2.68551c-1.0345,2.007-1.64,5.4526,1.3525,10.4707.9954,1.6727,3.7919,4.6206,6.2596,7.2222a61.89127,61.89127,0,0,1,5.7521,6.5623,16.71351,16.71351,0,0,1-.4835,19.5116c-5.1031,6.5546-5.9656,14.2811-2.5657,22.9625,6.3162,16.1139,20.741,20.079,28.7778,21.0079a19.7262,19.7262,0,0,1,12.6215,6.6494l104.1407,119.33a47.94175,47.94175,0,0,0,61.2538,9.4732c30.0694-18.3681,73.8079-57.49031,107.0266-112.4922l-64.1528-44.3679c-3.9596,4.0565-18.0033,25.7134-46.8442,75.988a16.75473,16.75473,0,0,1-23.3568,5.9502l-112.8505-69.6663a76.89184,76.89184,0,0,1-23.7663-23.0486c-2.7965-4.2624-5.2598-8.541-7.6404-12.6781-5.6301-9.78141-10.9488-19.0215-19.5453-25.9715-5.9873-4.8417-12.1292-10.0895-16.6137-13.9228C1204.56511,685.09352,1202.16931,683.04622,1200.80581,681.955Z"/><path d="M1845.50181,846.28632s7.5078-138.72631-97.3661-177.6977c-81.2101-30.1778-184.9138-17.1597-217.4149-5.8858-80.0217,27.7577-119.4104,133.4863-119.4104,133.4863l93.7827,13.216s-28.2658,303.77809-16.0061,371.53069c0,0,75.4717,8.8597,107.4816-3.8299,32.0101-12.6896,137.2604-30.4684,187.5724-7.2018l-9.143-324.92159Z"/><path class="cls-1" d="M1542.34121,1186.21041a510.976,510.976,0,0,1-53.5133-3.0601,2.23281,2.23281,0,0,1-1.9362-1.8175c-11.772-65.0653,13.0919-340.71969,15.7861-370.01589l-91.6782-12.9198a2.231,2.231,0,0,1-1.7795-2.9872c.3986-1.0672,40.6828-107.0341,120.7697-134.8144,35.4752-12.30351,139.409-23.6432,218.9231,5.9023,43.573,16.1923,74.4808,52.4809,89.3805,104.9444a257.64668,257.64668,0,0,1,9.4372,74.9654,2.23207,2.23207,0,0,1-2.228,2.10939h-.0414l-68.1668-1.26209,9.0778,322.58569a2.23079,2.23079,0,0,1-3.1668,2.0876c-50.2267-23.2261-154.3304-5.2304-185.8154,7.2517C1583.65561,1184.62481,1562.40921,1186.20931,1542.34121,1186.21041Zm-51.3396-7.3093c11.2036,1.1892,76.2188,7.4422,104.7462-3.8681,31.3348-12.4233,133.6046-30.1489,186.0659-8.577l-9.0452-321.41069a2.246,2.246,0,0,1,.6447-1.6324,2.444,2.444,0,0,1,1.6269-.661l68.2997,1.2643c.3354-17.6308-.9583-138.027-95.982-173.3366-78.46-29.1568-180.9432-17.9968-215.9044-5.8697-71.1833,24.6908-110.3305,113.2327-117.0213,129.5666l90.9725,12.8196a2.233,2.233,0,0,1,1.9101,2.4154C1507.03381,812.62152,1479.65421,1109.09211,1491.00161,1178.90111Z"/><path class="cls-1" d="M1714.78811,1105.17171a2.18172,2.18172,0,0,1-.392-.0349c-122.4228-21.7777-158.229-107.5656-158.5753-108.4292a2.2303,2.2303,0,0,1,4.1382-1.665c.3398.8407,35.3423,84.3776,155.2168,105.7034a2.23,2.23,0,0,1-.3877,4.4257Z"/><polygon class="cls-1" points="1491.03 958.034 1644.675 958.034 1596.551 785.278 1442.905 785.278 1491.03 958.034"/><path d="M1644.67641,960.26441h-153.6465a2.22839,2.22839,0,0,1-2.1475-1.6313l-48.1249-172.75619a2.23013,2.23013,0,0,1,2.1475-2.8292h153.6465a2.22836,2.22836,0,0,1,2.1475,1.63129l48.1249,172.7562a2.23025,2.23025,0,0,1-2.1475,2.8292Zm-151.952-4.4605h149.0161L1594.857,787.50822h-149.0161Z"/><path class="cls-1" d="M1827.29271,846.41432l-67.5672-3.0682s-.5081,57.2736-6.6044,58.2963c-21.7195,3.6438-67.2051,3.8251-96.8078.22859a23.85767,23.85767,0,0,1-20.4104-19.46169,34.23488,34.23488,0,0,0-16.2188-23.42c-10.2292-6.33631-.1414,13.6006-9.7069,26.4386-5.1389,6.89709-21.4074,3.8395-43.5933-1.333-22.1861-5.1727-27.8195,18.6909-2.9554,33.114,26.9552,15.636,44.0831,13.8802,52.6782,15.71109,17.1223,3.64731,168.512,27.5301,191.8811,14.7458C1826.042,937.78912,1827.29271,846.41432,1827.29271,846.41432Z"/><path d="M1778.61861,953.66181c-53.9968,0-154.411-16.73569-162.9749-18.56089-1.7206-.36591-3.916-.5902-6.4599-.8505-10.0623-1.0269-25.2669-2.5787-46.8747-15.112-15.6533-9.08-19.4887-21.5283-16.4265-29.25041,2.2564-5.69329,8.9625-10.76909,21.009-7.966,20.0026,4.66521,36.9235,8.04881,41.2969,2.17361,4.2732-5.7368,4.21-13.30861,4.1643-18.8363-.037-4.564-.0653-7.8615,2.3827-9.238,2.0626-1.162,4.4823.0555,6.1224,1.0716a36.67374,36.67374,0,0,1,17.2366,24.90309,21.5755,21.5755,0,0,0,18.4868,17.66141c29.172,3.54359,73.81,3.4608,95.8404-.159,2.8597-3.4859,4.8547-31.6288,5.0725-56.1715a2.23092,2.23092,0,0,1,2.3305-2.2085l67.5678,3.0677a2.23076,2.23076,0,0,1,2.1301,2.2586c-.1307,9.4862-1.8077,92.9708-20.4644,103.178C1803.78961,952.50531,1792.79951,953.66181,1778.61861,953.66181Zm-218.0628-68.04919c-5.1575,0-9.0082,2.0865-10.5263,5.9187-2.3783,6.0014,1.15,15.9941,14.5185,23.74769,20.7759,12.052,35.4077,13.54611,45.0888,14.53491a68.13213,68.13213,0,0,1,6.9348.9245c17.45,3.7168,167.9188,27.238,190.3478,14.97049,13.4883-7.37909,17.5742-70.64649,18.1057-97.16469l-63.103-2.8651c-.0762,4.6511-.3136,15.6271-.9866,26.5693-1.7424,28.2943-4.6326,31.1225-7.4466,31.594-22.246,3.7309-67.7813,3.8452-97.4434.2428a26.01919,26.01919,0,0,1-22.3331-21.2615,31.91139,31.91139,0,0,0-15.2024-21.9389,8.5255,8.5255,0,0,0-1.4963-.7732,30.99558,30.99558,0,0,0-.2004,5.1095c.0479,5.8142.122,14.6002-5.0486,21.5393-6.0112,8.0695-22.8101,4.8863-45.8881-.49441A23.56359,23.56359,0,0,0,1560.55581,885.61262Z"/><path class="cls-1" d="M1594.62211,665.17612s17.4951-10.765,17.3243-17.0567l4.994-32.3091a6.8403,6.8403,0,0,0-4.5251-6.5844l-20.6901-7.104a6.30949,6.30949,0,0,1-4.1587-6.3622l1.6133-25.6752-8.1098-7.1799a1.586,1.586,0,0,1-.1734-2.191l12.8088-15.60819c4.1886-5.8978,8.3918-20.0118,11.8208-19.0448,0,0,72.9855-8.4318,76.5446,28.37189a22.36353,22.36353,0,0,1-4.1767,15.0046l-6.4638,9.113a46.7132,46.7132,0,0,0-8.7574,31.5818c.2392,2.3295,3.2706,17.3294,5.3015,27.2467a23.86153,23.86153,0,0,0,8.8147,14.13139c5.7014,4.39181,12.6426,9.98421,11.5109,10.34641a108.07774,108.07774,0,0,1-20.8417,11.197,76.94757,76.94757,0,0,1-69.3681-5.7606Z"/><path d="M1638.66511,680.94662a80.18472,80.18472,0,0,1-41.7347-11.7502l-3.4695-2.1171a2.2297,2.2297,0,0,1-.0087-3.8027c7.8887-4.857,16.348-12.0084,16.263-15.0957a2.49154,2.49154,0,0,1,.0262-.4018l4.968-32.1439a4.5933,4.5933,0,0,0-3.0361-4.3059l-20.6735-7.0981a8.57321,8.57321,0,0,1-5.6585-8.6118l1.5442-24.58741-7.2941-6.45769a3.80111,3.80111,0,0,1-.4181-5.2762l12.8066-15.60749a63.37217,63.37217,0,0,0,4.4256-8.4985c3.0841-6.6244,5.5561-11.9006,9.2195-11.3866,4.7175-.5074,48.1336-4.6674,68.439,11.7438a26.592,26.592,0,0,1,10.2257,18.66859,24.54448,24.54448,0,0,1-4.5759,16.5092l-6.4643,9.1138a44.35708,44.35708,0,0,0-8.357,30.0629c.098.9703.9169,5.7727,5.2664,27.0267a21.65837,21.65837,0,0,0,7.9911,12.8131c12.8937,9.9306,12.7325,10.8497,12.4668,12.3721a2.54723,2.54723,0,0,1-.9997,1.53329,109.18906,109.18906,0,0,1-21.3095,11.466A77.73356,77.73356,0,0,1,1638.66511,680.94662Zm-39.8485-15.8242.4356.2668a74.94869,74.94869,0,0,0,67.3566,5.6029,113.79109,113.79109,0,0,0,18.5935-9.7215c-1.3199-1.2381-4.0663-3.598-9.7748-7.9943a26.11251,26.11251,0,0,1-9.6377-15.4507c-3.3475-16.3534-5.1422-25.59461-5.336-27.46661a48.81336,48.81336,0,0,1,9.1584-33.099l6.4643-9.11379a20.09469,20.09469,0,0,0,3.7745-13.4981,22.00592,22.00592,0,0,0-8.59-15.62929c-19.5911-15.8351-65.0262-10.793-65.477-10.7429a2.19069,2.19069,0,0,1-.4465.0076c-1.2284.93-3.5044,5.8207-4.8874,8.7904a64.39778,64.39778,0,0,1-4.9267,9.3229l-12.5082,15.25029,7.6426,6.7681a2.22879,2.22879,0,0,1,.7471,1.80879l-1.6118,25.67531a4.08907,4.08907,0,0,0,2.6746,4.11969l20.6735,7.098a9.06333,9.06333,0,0,1,6.0287,8.73161,2.35936,2.35936,0,0,1-.0261.3027l-4.968,32.1385C1614.07121,654.06152,1604.26811,661.45252,1598.81661,665.12242Z"/><path d="M1603.09881,470.048c16.6305-.855-4.3995,16.28382,57.2146-1.42458,24.5359-7.0518,11.9321,21.734,18.3015,19.9219,23.5238-6.6928,22.7158-6.4902,34.1498-3.3692,7.5713,2.0664,12.4021,16.2315,10.8948,26.7785-1.9897,13.9221-17.6064,36.02449-31.5921,59.38738-7.2417,12.09731-20.0642,13.19261-35.5713-4.812-1.6508-1.91669,6.7856-13.20479,2.3821-18.07239-11.4441-12.65069-16.5304,6.4585-25.7688.5598-8.8701-5.66349-12.5345-9.32709-21.9089-17.89109-11.3437-10.363-30.3906,5.7655-36.9594-17.5585C1570.81551,501.40413,1580.32981,471.21843,1603.09881,470.048Z"/><path class="cls-1" d="M1058.668,1744.82781a18.83527,18.83527,0,0,0,9.969-3.4387c15.0909-10.7002,46.4614-34.5993,67.892-31.6137,35.8912,5.0002,40.1435,34.3055,40.1435,34.3055s30.2705-1.1225,29.6673,19.0175c-.463,15.4608-9.2671,35.1031-33.7412,45.9124-33.3618,14.7348-66.8049,25.9596-103.7174,1.776a37.31373,37.31373,0,0,0-24.1891-6.0264c-20.7401,2.0896-329.8227,8.7453-329.8227,8.7453a190.13542,190.13542,0,0,1-168.3959-101.8501l-65.1472-124.2623,74.639-208.5503,117.0411,271.8954C729.71311,1728.13741,1052.76461,1746.17261,1058.668,1744.82781Z"/><path d="M1113.94531,1827.026c-14.9519.001-30.3677-3.9444-46.2867-14.3737a35.25119,35.25119,0,0,0-22.7426-5.6726c-20.5907,2.0745-317.3749,8.4844-329.9985,8.7566a191.84878,191.84878,0,0,1-170.4192-103.0452l-65.1471-124.2621a2.22878,2.22878,0,0,1-.1241-1.787l74.6387-208.5504a2.22966,2.22966,0,0,1,2.0299-1.4778,2.20258,2.20258,0,0,1,2.1181,1.3471l116.9397,271.661c54.9627,74.2652,370.8315,94.5641,383.3223,93.0112a1.31236,1.31236,0,0,1,.3942-.0359,16.84122,16.84122,0,0,0,8.6772-3.0275l3.5022-2.5003c16.9099-12.1151,45.2086-32.3976,65.9866-29.502,31.6855,4.4137,39.8791,27.4373,41.6258,34.2783,4.8504.0883,17.8356,1.0215,25.0818,8.2165a17.02168,17.02168,0,0,1,5.0268,13.1028c-.2331,7.7025-3.4434,33.9179-35.0701,47.8854C1154.48871,1819.44761,1134.66461,1827.026,1113.94531,1827.026Zm-65.6599-24.6756a39.93681,39.93681,0,0,1,21.8169,6.571c36.1416,23.678,68.6787,12.5877,101.5947-1.9504,29.2395-12.9144,32.2016-36.8963,32.4129-43.9388a12.5612,12.5612,0,0,0-3.7005-9.7977c-7.4552-7.4128-23.494-6.9282-23.6573-6.9239-.0261.0011-.0523.0011-.0806.0011a2.231,2.231,0,0,1-2.2063-1.9101c-.1699-1.1249-4.528-27.7204-38.2434-32.4172-18.9986-2.6376-47.478,17.7506-62.7763,28.7114l-3.5196,2.5134a21.68916,21.68916,0,0,1-11.2667,3.8485c-7.7363.428-88.4549-3.9901-174.1186-17.5427-80.7981-12.7837-183.3957-36.5979-213.3333-77.4592a2.239,2.239,0,0,1-.2493-.4356l-114.801-266.693-72.4008,202.2963,64.6929,123.3964a187.38058,187.38058,0,0,0,166.4204,100.6559c3.0416-.0664,309.1835-6.6777,329.5979-8.7348C1045.73711,1802.41351,1047.01341,1802.35041,1048.28541,1802.35041Z"/><path class="cls-1" d="M977.46041,1688.92991l29.8915-52.3213,24.536,15.9194a10.27926,10.27926,0,0,1,3.2924,3.4589l1.4671,2.5271a10.19806,10.19806,0,0,0,8.8995,5.0934,10.089,10.089,0,0,1,5.6002,1.6301l182.4706,118.1797a20.50526,20.50526,0,0,1,4.078,3.4758l36.8761,40.8764-51.3277-11.5957a33.17426,33.17426,0,0,1-8.0568-2.9619l-192.0323-100.3931a10.27737,10.27737,0,0,1-3.9896-3.7224l-.2428-.3951a10.19666,10.19666,0,0,0-8.6848-4.8733l-1.774.0067a10.06019,10.06019,0,0,1-4.6953-1.151Z"/><path d="M1274.57231,1830a2.24489,2.24489,0,0,1-.4923-.0544l-51.3287-11.5957a35.46326,35.46326,0,0,1-8.5965-3.1613l-192.0315-100.3935a12.49222,12.49222,0,0,1-4.8569-4.5313l-.2418-.3921a7.98931,7.98931,0,0,0-6.7496-3.8136h-.0283l-1.775.0065h-.0479a12.33534,12.33534,0,0,1-5.689-1.4048l-26.3058-13.7529a2.22772,2.22772,0,0,1-.9038-3.083l29.8907-52.3219a2.22919,2.22919,0,0,1,3.1494-.7645l24.5351,15.9201a12.537,12.537,0,0,1,4.0075,4.2089l1.468,2.5265a7.95318,7.95318,0,0,0,6.8519,3.9857c.0763-.0011.1612-.0032.2483-.0022a12.26248,12.26248,0,0,1,6.6821,1.9886l182.4722,118.18a22.76774,22.76774,0,0,1,4.5216,3.854l36.8755,40.8765a2.2298,2.2298,0,0,1-1.6552,3.7244Zm-264.2973-128.4025a12.4669,12.4669,0,0,1,10.5459,5.9362l.2417.3909a8.04951,8.04951,0,0,0,3.1255,2.9174l192.0314,100.3935a30.9786,30.9786,0,0,0,7.5162,2.7628l44.4725,10.0471-32.1668-35.6581a18.25712,18.25712,0,0,0-3.6372-3.0982l-182.4701-118.1801a7.39513,7.39513,0,0,0-4.3581-1.2708c-.048,0-.0981.0011-.146.0011a12.41641,12.41641,0,0,1-10.7113-6.2073l-1.4658-2.5243a8.071,8.071,0,0,0-2.5788-2.7073l-22.5553-14.6361-27.5734,48.2622,24.2564,12.6802a7.99185,7.99185,0,0,0,3.6524.8974l1.7751-.0066Z"/><path d="M1224.39131,1808.745a2.23,2.23,0,0,1-1.9798-3.254l10.9619-21.2321a2.23069,2.23069,0,0,1,3.9639,2.0473l-10.9618,21.2322A2.23137,2.23137,0,0,1,1224.39131,1808.745Z"/><path d="M964.846,1610.70041l43.4848,26.2808-30.6799,52.2397-43.4849-26.2808a16.906,16.906,0,0,1-6.1007-22.8929l14.0306-23.8903A16.39946,16.39946,0,0,1,964.846,1610.70041Z"/><path d="M977.65091,1691.45141a2.23543,2.23543,0,0,1-1.1543-.3213l-43.4858-26.2807a19.16451,19.16451,0,0,1-6.8694-25.9312l14.0306-23.8904a18.15827,18.15827,0,0,1,11.2842-8.4528,18.96068,18.96068,0,0,1,14.5446,2.2161l43.4836,26.2807a2.23127,2.23127,0,0,1,.7689,3.0383l-30.6792,52.2403a2.236,2.236,0,0,1-1.9232,1.101Zm-21.5643-80.9941a14.38225,14.38225,0,0,0-3.5349.4421,13.72713,13.72713,0,0,0-8.5334,6.3869l-14.0306,23.8905a14.6876,14.6876,0,0,0,5.3317,19.8545l41.5518,25.1123,28.4206-48.3928-41.5997-25.1417A14.66959,14.66959,0,0,0,956.08661,1610.45731Z"/><path d="M1020.47461,1698.59841a2.23053,2.23053,0,0,1-1.9079-3.3802l14.7972-24.5732a2.22957,2.22957,0,0,1,3.8202,2.3l-14.7972,24.5732A2.22749,2.22749,0,0,1,1020.47461,1698.59841Z"/><path d="M1107.80121,1719.37981a2.218,2.218,0,0,1-1.1826-.3409l-54.452-34.1782a2.23015,2.23015,0,0,1,2.3696-3.7788l54.452,34.1782a2.23041,2.23041,0,0,1-1.187,4.1197Z"/><path d="M1221.31161,1789.78661a2.22061,2.22061,0,0,1-1.1761-.3365l-21.2702-13.2443a2.23042,2.23042,0,0,1,2.3565-3.7876l21.2703,13.2444a2.2304,2.2304,0,0,1-1.1805,4.124Z"/><path class="cls-1" d="M972.80271,1670.45551a2.2204,2.2204,0,0,1-1.1652-.33l-33.136-20.3468a2.23024,2.23024,0,1,1,2.3348-3.8006l33.136,20.3468a2.23,2.23,0,0,1-1.1696,4.1306Z"/><path class="cls-1" d="M1058.668,1744.82781s44.5392-5.5453,72.9003-1.6142c22.0881,3.0616,87.473-12.635,73.8116,29.6605-2.9415,9.1068-4.4927,15.175-12.5872,23.7672-4.4263,4.6984-16.5458,14.3839-23.4091,17.4152-33.395,14.7494-63.6573,20.9284-100.6125-3.3419a37.07691,37.07691,0,0,0-24.0687-5.9552C1039.768,1805.25651,1057.10451,1745.184,1058.668,1744.82781Z"/><path d="M1118.53871,1829.23231c-16.3371.001-32.9334-4.7927-50.9912-16.653a34.96043,34.96043,0,0,0-22.6206-5.6007c-5.4363.5478-22.8667,1.1544-23.6073,1.1805a2.2305,2.2305,0,0,1-.1524-4.4584c.1786-.0054,18.0207-.6272,23.311-1.1608a39.46542,39.46542,0,0,1,25.5174,6.3107c35.375,23.2316,63.9088,18.4367,98.4867,3.1657,6.3945-2.8238,18.3016-12.249,22.6881-16.9045,7.1983-7.6436,8.9123-13.0004,11.5042-21.1091l.5837-1.8132c2.533-7.8451,2.3108-13.5983-.6817-17.5894-6.6342-8.8503-26.3625-8.2906-43.7777-7.806-10.9488.3082-21.2921.6001-27.8936-1.4505-33.6456-10.45-71.1724,1.4821-71.5492,1.6052-1.8578.4312-6.7017.2842-18.073-.4901a2.23,2.23,0,1,1,.3049-4.4496c9.8816.673,15.4551.8886,16.5855.6436,1.3895-.4607,39.0318-12.4483,74.0561-1.5692,5.8893,1.8306,15.8754,1.5507,26.443,1.2523,18.502-.5216,39.4543-1.1097,47.4737,9.5897,3.8703,5.1618,4.3255,12.4407,1.3547,21.6351l-.5772,1.8001c-2.6789,8.3776-4.6151,14.4303-12.5082,22.809-4.6108,4.8962-17.0493,14.7995-24.13,17.926C1152.41961,1823.98661,1135.62071,1829.23121,1118.53871,1829.23231Z"/><path class="cls-1" d="M373.79711,1232.7179s137.1624,18.17311,182.7171,73.68131c57.6947,70.3008,82.5633,174.7544,90.644,219.8992a101.63006,101.63006,0,0,1-.8368,40.0008l-3.3564,15.0777a111.702,111.702,0,0,1-114.8432,87.2796l2.727.0071c-8.8015-.4584-21.6394-3.3664-25.3665-11.353l-14.4099-26.2925-1.3554,9.4756c-10.8335,69.9547,45.7052,165.783,45.7052,165.783l-162.2335-21.888c-83.351-8.3686-162.6656-41.2099-226.2963-95.6943-34.5501-29.5838-61.2629-57.2586-72.788-90.8736-19.5689-57.0759-17.7812-73.3396-23.2699-142.5868-3.7372-47.1498,10.0985-94.2534,39.6716-131.1656C133.96591,1269.82321,217.62731,1212.90531,373.79711,1232.7179Z"/><path d="M535.42261,1808.50651a2.31314,2.31314,0,0,1-.2984-.0196l-162.2343-21.8878c-85.2641-8.5595-163.9397-41.8316-227.4478-96.2106-30.8491-26.4147-61.0982-55.823-73.4474-91.8449-16.5396-48.2403-17.9031-67.3925-21.1962-113.6618-.6218-8.7294-1.3122-18.4258-2.1878-29.4715-3.8431-48.481,10.4184-95.6204,40.1557-132.7367,42.5873-53.156,126.6491-112.2994,285.3116-92.16825l.0119.00218c5.6367.746,138.5596,18.92677,184.1482,74.47757,61.2016,74.5734,85.214,187.9488,91.1153,220.9203a103.36421,103.36421,0,0,1-.8549,40.8787l-3.3563,15.0772a113.58169,113.58169,0,0,1-117.1368,89.0222,2.2237,2.2237,0,0,1-1.0237-.3104c-9.6713-1.1358-20.0233-4.8253-23.5201-12.3198l-11.1284-20.2967-.4084,2.8532c-10.5927,68.402,44.8568,163.3821,45.4187,164.3328a2.23111,2.23111,0,0,1-1.9209,3.3639ZM313.007,1230.941c-118.0973,0-184.6436,49.44265-220.7602,94.52165-29.0239,36.2265-42.9424,82.2508-39.1886,129.5949.8766,11.0598,1.567,20.7682,2.1889,29.5074,3.2648,45.8598,4.6162,64.8421,20.9664,112.5325,12.004,35.0113,41.7608,63.8991,72.1297,89.9021,62.8122,53.7845,140.6395,86.6939,225.0683,95.1696l157.8358,21.2931c-10.6122-18.9975-53.4479-100.5807-43.734-163.3091l1.3514-9.4503a2.22991,2.22991,0,0,1,4.1632-.7558l14.4107,26.2917c3.1886,6.8214,14.6557,9.7356,23.5267,10.1984a2.21312,2.21312,0,0,1,.6044.1165,109.15308,109.15308,0,0,0,109.2187-85.6615l3.3563-15.0772a98.91058,98.91058,0,0,0,.8178-39.1232c-5.8533-32.7037-29.6544-145.1382-90.1721-218.8774-44.4823-54.2004-179.9229-72.70468-181.2863-72.88545A480.92618,480.92618,0,0,0,313.007,1230.941Z"/><path d="M500.383,1657.944a2.22813,2.22813,0,0,1-2.0146-1.2719l-38.4166-80.6761a2.23,2.23,0,0,1,4.0272-1.9167l38.4165,80.6761a2.23057,2.23057,0,0,1-2.0125,3.1886Z"/><path d="M395.29941,957.998l10.072-6.7146a21.00525,21.00525,0,0,0,8.1162-24.728c-10.1167-27.3388-47.0098-74.9843-181.2062-38.7965-136.8362,36.8996-112.6433,256.45709,3.9262,303.37819,116.5696,46.92107,156.1593-194.2826,156.1593-194.2826Z"/><path class="cls-1" d="M378.47851,963.02631a9.13522,9.13522,0,0,1,16.9278-2.8158c10.2383,17.9733,15.1194,30.4756,16.7554,38.1103,2.1994,10.264-7.3314,20.528-2.1994,31.5251s13.1965,23.4605,13.9297,43.2554c.7163,19.3423,20.333,107.9857-48.5396,105.1877a4.69671,4.69671,0,0,0-4.9319,4.7251c.167,13.4943.8897,50.607,3.8865,70.6987a21.99366,21.99366,0,0,1-15.8437,24.3685c-27.572,7.7861-78.9049,18.7476-117.3191,6.2562a18.64457,18.64457,0,0,1-11.6687-24.072c4.5414-12.6074,10.8859-48.0452,6.7321-69.1284a169.78819,169.78819,0,0,0,48.6175-14.0177c39.3719-18.0641,58.7446-62.0444,47.865-103.974-2.3402-9.0187-7.4013-21.8376-2.1283-35.4154,13.6028-35.0273,33.9457.1804,33.9457.1804Z"/><path d="M281.66351,1292.21661c-14.2516,0-28.4249-1.6008-41.2087-5.7575a20.53739,20.53739,0,0,1-12.1826-10.5981,20.82791,20.82791,0,0,1-.8951-16.3513c4.3941-12.199,10.7212-47.2374,6.6429-67.9414a2.22975,2.22975,0,0,1,1.9689-2.6506,169.2116,169.2116,0,0,0,47.906-13.8248c37.7697-17.3292,57.3836-59.9689,46.6363-101.3878-.3115-1.2-.6719-2.4687-1.0498-3.7973-2.4612-8.6684-5.8316-20.5407-.9986-32.9846,4.1654-10.7255,9.5374-16.4155,15.969-16.9099,7.868-.6066,14.9661,6.9619,18.8614,12.1423l12.9732-69.539a11.36511,11.36511,0,0,1,21.0569-3.5109c11.5216,20.2248,15.6031,32.2343,16.9992,38.7476,1.0868,5.0736-.3343,9.9806-1.7086,14.7265-1.6281,5.6225-3.1657,10.9335-.6502,16.3229.8473,1.8154,1.7751,3.6721,2.7367,5.5953,4.7992,9.5984,10.7712,21.5425,11.4007,38.52.086,2.3489.4813,5.935.9398,10.0884,2.4067,21.842,6.8857,62.4997-13.0538,83.868-9.0191,9.6648-22.0663,14.231-38.7454,13.5428a2.50817,2.50817,0,0,0-1.8807.71,2.39013,2.39013,0,0,0-.7307,1.7598c.1808,14.5969.9213,50.67644,3.8626,70.3971a24.277,24.277,0,0,1-17.4435,26.8437C340.54671,1285.45831,310.94341,1292.21551,281.66351,1292.21661Zm-42.852-99.152c3.4271,21.928-2.7377,55.4647-7.2374,67.9566a16.40467,16.40467,0,0,0,.7046,12.8785,16.10716,16.10716,0,0,0,9.5548,8.3166c37.9297,12.334,88.9721,1.3569,116.0228-6.2813a19.80456,19.80456,0,0,0,14.244-21.8932c-2.9816-19.99068-3.7276-56.312-3.9105-71.0004a6.80978,6.80978,0,0,1,2.0832-5.0126,7.02748,7.02748,0,0,1,5.1695-1.9678c15.3461.6229,27.2118-3.4587,35.303-12.1293,18.5435-19.872,14.2093-59.2054,11.881-80.3374-.4857-4.4137-.8701-7.9007-.9638-10.4108-.5924-16.0126-6.0853-26.9984-10.9313-36.6905-.9801-1.9612-1.9264-3.8528-2.79-5.7041-3.2234-6.9075-1.2937-13.5711.4084-19.4495,1.2773-4.4094,2.4829-8.5748,1.6302-12.5518-1.0879-5.0801-4.6805-16.7041-16.5125-37.4734a6.90443,6.90443,0,0,0-12.7968,2.1213L366.7,1038.32041a2.23069,2.23069,0,0,1-4.1229.7078c-2.459-4.2438-10.3902-15.1185-17.7877-14.5675-4.5716.355-8.6586,5.0911-12.1488,14.0764-4.2918,11.0511-1.284,21.6416,1.1325,30.1521.3866,1.3634.7558,2.6648,1.0749,3.8964,11.2918,43.5131-9.3556,88.3296-49.0931,106.5605A174.90239,174.90239,0,0,1,238.81151,1193.06461Z"/><path d="M177.18991,932.13812s-67.334-32.1367-116.3041,13.77279c-48.9702,45.9096-96.4101,146.9106-22.9548,257.0934,46.1623,69.2434,63.9187,123.9817,70.7408,155.0993a12.08,12.08,0,0,0,21.8533,4.1513c29.5624-44.3766,83.495-142.2556,57.377-234.2361C152.70481,1004.063,177.18991,932.13812,177.18991,932.13812Z"/><path d="M424.08361,1064.44541a2.23031,2.23031,0,0,1-1.15-4.1426c22.099-13.2596,7.7841-50.7287,3.8115-59.9873l-62.5226,31.9196a2.23013,2.23013,0,0,1-2.0277-3.9727l64.6134-32.9868a2.23117,2.23117,0,0,1,3.0231,1.0171c.9932,2.0604,24.02,50.6612-4.6021,67.8347A2.21955,2.21955,0,0,1,424.08361,1064.44541Z"/><path d="M425.86631,1090.07821a2.2303,2.2303,0,0,1-1.5704-3.8137l8.8133-8.737a7.62,7.62,0,0,0,.832-9.8914l-6.0625-8.4582a2.23058,2.23058,0,0,1,3.6264-2.5983l6.0624,8.4582a12.06238,12.06238,0,0,1-1.3177,15.6565l-8.8132,8.737A2.22312,2.22312,0,0,1,425.86631,1090.07821Z"/><path d="M354.95631,1097.75131a18.85277,18.85277,0,0,1-4.5586-.5598c-7.6251-1.8938-14.1743-8.4158-19.4647-19.3841a2.23075,2.23075,0,0,1,4.0184-1.9384c4.6707,9.6844,10.2083,15.3962,16.4602,16.9785a15.88932,15.88932,0,0,0,12.1826-2.1682,2.23073,2.23073,0,0,1,2.6364,3.5991A20.44323,20.44323,0,0,1,354.95631,1097.75131Z"/><path class="cls-1" d="M160.26861,926.06932s62.5651,18.84269,36.9536,78.84659c0,0,28.9044-20.855,28.1726-53.4181s-24.8797-43.17359-40.9783-42.80769S160.26861,926.06932,160.26861,926.06932Z"/><path d="M197.22171,1007.14571a2.23135,2.23135,0,0,1-2.0517-3.1058c7.2821-17.0592,7.9094-32.2757,1.8644-45.2261-10.364-22.20129-37.1413-30.52889-37.4103-30.60949a2.23226,2.23226,0,0,1-1.3711-3.0895c.3529-.74481,8.8362-18.2624,26.1131-18.6534a42.78543,42.78543,0,0,1,27.716,9.5603c6.8542,5.6214,15.1131,16.3295,15.5422,35.42619.7503,33.3527-27.8783,54.3964-29.098,55.2763A2.22816,2.22816,0,0,1,197.22171,1007.14571Zm-33.6968-82.31179c7.3714,2.75509,28.1821,12.0584,37.5366,32.06219,5.592,11.9583,6.0308,25.5544,1.3253,40.5129,8.211-8.1305,21.2594-24.4731,20.7791-45.8609-.3103-13.77479-5.1204-24.86729-13.9119-32.07749a39.09867,39.09867,0,0,0-24.7866-8.5508C173.30731,911.17352,166.22781,920.48772,163.52491,924.83392Z"/><path d="M40.96431,1439.02321c51.6343,31.2077,156.6498,75.6999,325.659,65.3808a28.34656,28.34656,0,0,1,28.3044,18.2648l10.5432,42.1965a513.94894,513.94894,0,0,0,102.0423,202.3243l25.2493,30.6303a6.9429,6.9429,0,0,1-5.8661,11.3404l-111.4315-8.1859c-191.2745-25.3041-339.8752-121.239-387.5371-295.9992l-12.7126-46.6128C11.089,1443.233,27.54321,1430.91161,40.96431,1439.02321Z"/><path class="cls-1" d="M1092.22471,250.24363h366.9255c20.7747,0,36.6647,16.9013,36.6647,37.676v106.1883c0,20.7744-15.89,37.5552-36.6647,37.5552h-13.2667v70.9125l-48.2809-70.9125h-305.3779c-20.7747,0-38.5664-16.7808-38.5664-37.5552V287.91963C1053.65831,267.14493,1071.45,250.24363,1092.22471,250.24363Z"/><path d="M1445.88451,504.80583a2.23049,2.23049,0,0,1-1.8426-.9746l-47.6196-69.9375h-304.1981c-22.1132,0-40.796-18.22-40.796-39.7854V287.91913c0-21.6318,18.6828-39.9062,40.796-39.9062h366.9264c21.8104,0,38.8946,17.5285,38.8946,39.9062v106.1892c0,22.3091-17.0842,39.7854-38.8946,39.7854h-11.0359v68.6819a2.22987,2.22987,0,0,1-2.2302,2.2302Zm-353.6603-252.3324c-19.6956,0-36.3355,16.23258-36.3355,35.4457v106.1892c0,19.1478,16.6399,35.3248,36.3355,35.3248h305.3785a2.226,2.226,0,0,1,1.8426.9747l44.2089,64.92918V431.66343a2.22967,2.22967,0,0,1,2.2303-2.2303h13.2661c19.3079,0,34.4341-15.516,34.4341-35.3248V287.91913c0-19.8763-15.1262-35.4457-34.4341-35.4457Z"/><path d="M1230.00841,367.27323a2.20908,2.20908,0,0,1-.9191-.1993l-50.536-22.9201a2.23,2.23,0,0,1-.0044-4.05982l50.536-23.06158a2.23,2.23,0,1,1,1.8513,4.05758l-46.0754,21.02632,46.071,20.89568a2.22995,2.22995,0,0,1-.9234,4.26122Z"/><path d="M1302.40271,367.27433a2.23068,2.23068,0,0,1-.9235-4.26232l46.0733-20.89568L1301.47481,321.09a2.23,2.23,0,1,1,1.8513-4.05758l50.5382,23.06158a2.23,2.23,0,0,1-.0044,4.05982l-50.5381,22.9201A2.21086,2.21086,0,0,1,1302.40271,367.27433Z"/><path d="M1245.19121,394.179a2.23119,2.23119,0,0,1-2.0822-3.02738l39.3411-102.9232a2.23016,2.23016,0,1,1,4.1665,1.5921l-39.3411,102.9233A2.233,2.233,0,0,1,1245.19121,394.179Z"/><path d="M1172.99721,1635.48781a2.23087,2.23087,0,0,1-.906-4.2699c115.0829-50.9748,219.4589-133.5709,301.8458-238.8605a2.22945,2.22945,0,1,1,3.5109,2.7487c-82.8356,105.8635-187.8017,188.9201-303.549,240.1912A2.23244,2.23244,0,0,1,1172.99721,1635.48781Z"/><path d="M1161.96131,1694.27191a2.23044,2.23044,0,0,1-.8058-4.3103c110.7139-42.9489,209.904-111.0471,294.8152-202.4019a2.23,2.23,0,1,1,3.267,3.0361c-85.3751,91.8536-185.1206,160.3296-296.4705,203.5236A2.20628,2.20628,0,0,1,1161.96131,1694.27191Z"/><path d="M674.14331,75.54531a2.23042,2.23042,0,0,1-.4988-4.4039c115.2267-26.5694,229.3731-28.351,339.2637-5.2969a2.22976,2.22976,0,1,1-.9147,4.3647c-109.2568-22.9201-222.7564-21.144-337.3471,5.2794A2.27838,2.27838,0,0,1,674.14331,75.54531Z"/><path d="M1055.74281,28.98741a2.17363,2.17363,0,0,1-.5619-.0719c-94.159-24.4142-192.7088-30.5855-292.9171-18.3441a2.23037,2.23037,0,0,1-.5402-4.4279c100.7659-12.31,199.8733-6.1016,294.5768,18.4552a2.2301,2.2301,0,0,1-.5576,4.3887Z"/><ellipse cx="1118.93763" cy="1640.27691" rx="14.92097" ry="14.9083"/><path d="M80.94411,769.07692a2.23024,2.23024,0,0,1-1.6106-3.7734l8.2067-8.566a2.23051,2.23051,0,1,1,3.2212,3.0862l-8.2067,8.5661A2.222,2.222,0,0,1,80.94411,769.07692Z"/><path d="M52.22181,799.06132a2.2302,2.2302,0,0,1-1.6106-3.77331l8.2067-8.56719a2.23055,2.23055,0,1,1,3.2212,3.0863l-8.2066,8.5671A2.222,2.222,0,0,1,52.22181,799.06132Z"/><path d="M60.27391,769.53652a2.22628,2.22628,0,0,1-1.5649-.6404l-8.3308-8.199a2.23085,2.23085,0,1,1,3.1297-3.1799l8.3309,8.1991a2.23031,2.23031,0,0,1-1.5649,3.8202Z"/><path d="M89.42961,798.23482a2.22613,2.22613,0,0,1-1.5649-.6403l-8.3298-8.1991a2.23089,2.23089,0,0,1,3.1298-3.1799l8.3298,8.1991a2.23031,2.23031,0,0,1-1.5649,3.8202Z"/><path d="M1100.96231,70.24291a21.80818,21.80818,0,0,1-7.9126-1.4952,22.17589,22.17589,0,0,1-12.3885-12.0094,22.76076,22.76076,0,0,1,11.3496-29.7263,21.65847,21.65847,0,0,1,16.8467-.4367,22.17865,22.17865,0,0,1,12.3884,12.0094,22.76333,22.76333,0,0,1-11.3473,29.7274A21.8009,21.8009,0,0,1,1100.96231,70.24291Zm-.0131-40.699a17.32314,17.32314,0,0,0-7.1111,1.5366,18.28549,18.28549,0,0,0-9.0822,23.8914,17.75813,17.75813,0,0,0,9.9098,9.6181,17.244,17.244,0,0,0,13.4034-.3463,18.28572,18.28572,0,0,0,9.0822-23.8926,17.75764,17.75764,0,0,0-9.9098-9.618A17.355,17.355,0,0,0,1100.94921,29.54391Zm-8.0259-.4977h0Z"/></g></g></g></svg>