<svg width="18" height="30" viewBox="0 0 18 30" fill="none" xmlns="http://www.w3.org/2000/svg">
<path d="M17.999 9.3327C17.999 9.45021 17.9968 9.56719 17.9922 9.68361C17.9588 10.7354 17.6104 11.7529 16.9923 12.6045C16.3741 13.4561 15.5145 14.1025 14.5249 14.4602C14.3027 14.5383 14.0768 14.6053 13.8479 14.6608H13.8472C12.0871 15.0896 10.2298 14.8336 8.65139 13.9446C7.07296 13.0555 5.89132 11.6 5.34571 9.8725C5.32936 9.82045 5.313 9.7684 5.29813 9.71561L5.2959 9.70892C5.25723 9.57657 5.22378 9.44348 5.19329 9.30815C5.19219 9.30451 5.19144 9.30078 5.19106 9.297L5.19079 9.29583L5.16013 9.10124C5.13096 8.57889 5.2883 8.06316 5.6041 7.64606C5.91989 7.22895 6.3736 6.9376 6.88427 6.82398C7.39495 6.71036 7.92939 6.78186 8.39224 7.02573C8.85509 7.26959 9.21625 7.66995 9.4113 8.1554C9.52682 8.46036 9.57167 8.78755 9.54248 9.11235C9.53682 9.19378 9.534 9.2759 9.53399 9.35872V9.37582C9.5386 10.2992 9.90865 11.1833 10.5632 11.8347C11.2178 12.486 12.1036 12.8517 13.0271 12.8518C13.0721 12.8518 13.1168 12.851 13.1614 12.8493C13.9589 12.8094 14.7137 12.4767 15.2811 11.9149C15.8485 11.353 16.1886 10.6016 16.2363 9.80447C16.247 9.64415 16.2524 9.48243 16.2525 9.31931C16.2523 8.04598 15.9114 6.79589 15.2652 5.69873C14.619 4.60156 13.691 3.69727 12.5774 3.07967C11.4639 2.46208 10.2054 2.15366 8.93251 2.18643C7.65961 2.21919 6.41864 2.59194 5.33836 3.266C4.25808 3.94006 3.37782 4.89089 2.78891 6.01985C2.19999 7.1488 1.92386 8.41477 1.98917 9.68643C2.05447 10.9581 2.45883 12.1891 3.1603 13.2518C3.86177 14.3145 4.8348 15.1701 5.97845 15.73C6.05762 15.7693 6.13836 15.807 6.21979 15.8427C6.25113 15.8561 6.28144 15.8717 6.31048 15.8896C6.35206 15.9156 6.39302 15.9435 6.43275 15.9739C6.72591 16.2156 6.95982 16.5213 7.11654 16.8675C7.27326 17.2137 7.34863 17.5912 7.33687 17.971C7.33687 17.9985 7.33613 18.026 7.33539 18.0528C7.35026 18.0565 7.30788 18.3985 7.30788 18.5769C7.30753 19.0718 7.50319 19.5466 7.85204 19.8976C8.2009 20.2485 8.67455 20.447 9.16939 20.4497C9.66423 20.4523 10.14 20.2588 10.4925 19.9116C10.8451 19.5643 11.0458 19.0916 11.0507 18.5968C11.0511 18.5629 11.0504 18.5307 11.0486 18.4974V18.4877C11.0455 18.4192 11.0383 18.3509 11.027 18.2833V18.281C11.0277 18.2595 11.0292 18.2379 11.0315 18.2163C11.0388 18.147 11.0547 18.0788 11.079 18.0134L11.0813 18.0082C11.1342 17.8687 11.2231 17.7456 11.3389 17.6516C11.4547 17.5576 11.5934 17.4959 11.7408 17.4728C11.7609 17.4699 11.7817 17.4676 11.8025 17.4661C11.8056 17.4652 11.8089 17.4649 11.8122 17.4654C11.8285 17.4639 11.8456 17.4632 11.8627 17.4632C11.885 17.4632 11.9073 17.4639 11.9296 17.4661C11.949 17.4676 11.9683 17.4699 11.9876 17.4728C11.9995 17.4743 12.0114 17.4765 12.0233 17.4788C12.033 17.4803 12.0419 17.4825 12.0516 17.4847C12.0594 17.4863 12.0671 17.4883 12.0746 17.4907C12.0885 17.4939 12.1021 17.4978 12.1155 17.5026C12.1198 17.5034 12.1241 17.5046 12.1282 17.5063C12.1467 17.5122 12.1638 17.5189 12.1817 17.5264C12.201 17.5345 12.2204 17.5435 12.2397 17.5531C12.2538 17.5606 12.2679 17.568 12.2821 17.5769C12.3046 17.5897 12.3264 17.6036 12.3475 17.6186L12.3527 17.6163C12.3548 17.6173 12.3568 17.6185 12.3587 17.62C12.5238 17.7372 12.6408 17.9102 12.688 18.1071C12.6984 18.1807 12.7059 18.255 12.7111 18.3309C12.7185 18.4201 12.7215 18.5108 12.7215 18.6022C12.7215 19.5819 12.3323 20.5214 11.6396 21.2142C10.9469 21.9069 10.0073 22.2961 9.02766 22.2961C8.04799 22.2961 7.10845 21.9069 6.41572 21.2142C5.723 20.5214 5.33382 19.5819 5.33382 18.6022C5.33382 18.495 5.33833 18.389 5.34735 18.284C5.36818 18.0418 5.31912 17.7987 5.20598 17.5834C5.09284 17.3682 4.92037 17.1899 4.709 17.0698C4.45803 16.9269 4.21499 16.7723 3.97987 16.6059C2.73057 15.7262 1.72887 14.5397 1.07127 13.1605C0.413667 11.7813 0.122326 10.2561 0.225315 8.73161C0.328303 7.20717 0.822151 5.73494 1.65928 4.45675C2.49641 3.17857 3.6486 2.13752 5.00486 1.43389C6.36112 0.730259 7.87573 0.387767 9.40277 0.439411C10.9298 0.491054 12.4178 0.935091 13.7235 1.72874C15.0291 2.5224 16.1083 3.63891 16.8572 4.97073C17.606 6.30255 17.9993 7.80478 17.999 9.3327Z" fill="#7964EF"/>
<path d="M12.019 23.8289H6.05817C5.6388 23.8289 5.29883 24.1688 5.29883 24.5882C5.29883 25.0076 5.6388 25.3475 6.05817 25.3475H12.019C12.4384 25.3475 12.7784 25.0076 12.7784 24.5882C12.7784 24.1688 12.4384 23.8289 12.019 23.8289Z" fill="#342F43"/>
<path d="M12.019 25.936H6.05817C5.6388 25.936 5.29883 26.276 5.29883 26.6954C5.29883 27.1148 5.6388 27.4547 6.05817 27.4547H12.019C12.4384 27.4547 12.7784 27.1148 12.7784 26.6954C12.7784 26.276 12.4384 25.936 12.019 25.936Z" fill="#342F43"/>
<path d="M7.35352 28.1047H10.7041C10.6699 28.5216 10.473 28.9081 10.1559 29.1808C9.8388 29.4535 9.42707 29.5904 9.00984 29.5617C8.80505 29.5765 8.59938 29.5504 8.40479 29.4849C8.21021 29.4194 8.0306 29.3158 7.87644 29.1802C7.72228 29.0446 7.59666 28.8797 7.50688 28.695C7.4171 28.5104 7.36497 28.3097 7.35352 28.1047Z" fill="#342F43"/>
</svg>
