<svg xmlns="http://www.w3.org/2000/svg" viewBox="0 0 49.63889 81.25611"><defs><style>.cls-1{fill:#7964ef;}.cls-2{fill:#342f43;}</style></defs><g id="Layer_2" data-name="Layer 2"><g id="Layer_1-2" data-name="Layer 1"><path class="cls-1" d="M49.63889,24.81945q0,.49179-.019.979a14.66511,14.66511,0,0,1-9.67348,13.32594,19.69776,19.69776,0,0,1-1.88858.55975h-.00208a19.92646,19.92646,0,0,1-23.718-13.35872c-.04563-.14521-.09127-.29041-.13275-.43769l-.00623-.01867c-.10787-.36923-.2012-.74054-.28626-1.11807a.1648.1648,0,0,1-.00622-.03112l-.00074-.00324-.08554-.5429a6.15682,6.15682,0,0,1,11.86018-2.63878,6.01668,6.01668,0,0,1,.366,2.66976q-.02369.34077-.02368.68734v.0477a9.74618,9.74618,0,0,0,9.74523,9.69753q.18825,0,.3748-.00709A9.04585,9.04585,0,0,0,44.721,26.13564q.045-.67091.04525-1.35353A19.90949,19.90949,0,1,0,16.10308,42.667c.22088.10957.44612.21476.67331.31433a1.94722,1.94722,0,0,1,.253.13093c.116.07264.23026.15046.3411.23513a6.94352,6.94352,0,0,1,2.5224,5.57167c0,.07675-.00208.1535-.00415.22817.04148.01037-.07675.96457-.07675,1.4624a5.22105,5.22105,0,0,0,10.44184.05534c.00127-.09455-.00068-.18431-.00585-.27728v-.027a4.7037,4.7037,0,0,0-.06016-.57044v-.00623q.00312-.09022.01245-.18046a2.32455,2.32455,0,0,1,.13276-.56629l.00622-.01453a2.35794,2.35794,0,0,1,1.83993-1.49352c.056-.00829.11409-.01452.17218-.01868a.05979.05979,0,0,1,.027-.00206c.04563-.00415.09335-.00623.14106-.00623.06223,0,.12445.00208.18669.00829q.08089.00624.16179.01868c.03319.00415.06638.01037.09957.0166.027.00414.05186.01037.07882.01658a.58451.58451,0,0,1,.06431.0166,1.03518,1.03518,0,0,1,.1141.0332.17361.17361,0,0,1,.03526.01037c.05186.0166.09956.03526.14934.056q.08091.03421.16181.07467c.03941.02074.07882.04149.11824.06638a2.08945,2.08945,0,0,1,.18254.11616l.01451-.00623a.07307.07307,0,0,1,.0166.01037,2.3329,2.3329,0,0,1,.91893,1.3587c.029.20536.04978.4128.0643.62437.02075.24892.029.502.029.75714a10.30531,10.30531,0,1,1-20.61061,0q0-.44868.03774-.8877a3.54754,3.54754,0,0,0-1.78091-3.38775q-1.05027-.5979-2.0342-1.29414A24.82139,24.82139,0,1,1,49.63889,24.81945Z"/><rect class="cls-2" x="14.20736" y="65.26161" width="20.86695" height="4.23694" rx="2.11847"/><rect class="cls-2" x="14.20736" y="71.14037" width="20.86695" height="4.23694" rx="2.11847"/><path class="cls-2" d="M19.94047,77.19126h9.34776a4.438,4.438,0,0,1-4.72684,4.06481A4.31676,4.31676,0,0,1,19.94047,77.19126Z"/></g></g></svg>